<svg width="38" height="38" viewBox="0 0 38 38" fill="none" xmlns="http://www.w3.org/2000/svg">
<path d="M30.0188 19.7183L29.9883 19.6775H29.9886C29.835 19.4707 29.5732 19.3777 29.3256 19.4419C29.0777 19.5061 28.8925 19.7148 28.8564 19.9707L28.5054 22.4558C28.4969 22.4874 28.4859 22.5188 28.4727 22.549C29.1175 21.6837 29.6382 20.7307 30.0188 19.7183L30.0188 19.7183Z" fill="#0E5295"/>
<path d="M27.8785 23.0031C27.8488 23.0031 27.8189 23.0014 27.7893 22.9974L24.0324 22.455L24.0327 22.4553C23.8667 22.431 23.7167 22.3415 23.6162 22.2057C23.5157 22.0703 23.4725 21.8997 23.4962 21.732L23.8472 19.2469H23.8475C23.883 18.9914 23.7633 18.7393 23.5434 18.6078C23.3234 18.4763 23.047 18.4914 22.8423 18.6457L20.8538 20.1515H20.8541C20.5746 20.3631 20.1781 20.3061 19.9687 20.0237L17.6919 16.9574C17.4821 16.6751 17.5388 16.2747 17.8183 16.063L19.806 14.5573C20.0107 14.4024 20.1028 14.138 20.0392 13.8876C19.9757 13.6372 19.769 13.4504 19.5158 13.4139L17.0555 13.0589V13.0586C16.8895 13.0349 16.7392 12.9451 16.6387 12.8096C16.5379 12.6739 16.4947 12.5033 16.5185 12.3356L17.0555 8.54175V8.54146C17.0792 8.37377 17.1678 8.22233 17.3022 8.12052C17.4364 8.01871 17.6052 7.97508 17.7715 7.99932L20.2318 8.35438H20.2315C20.4848 8.39145 20.7346 8.26996 20.864 8.04723C20.9984 7.82564 20.9834 7.54359 20.8261 7.33797L19.3368 5.33083C19.1273 5.04849 19.1838 4.64808 19.4633 4.43647L19.8219 4.16497C19.2408 4.13674 18.6586 4.15242 18.0801 4.21231C14.9464 4.57364 12.1018 6.23201 10.2241 8.7919C8.34632 11.3518 7.60481 14.5838 8.17509 17.7172C8.7457 20.8502 10.5778 23.604 13.2341 25.3217C14.2872 25.9814 14.9341 27.1387 14.9492 28.39V30.9715C14.9492 31.4797 15.1491 31.9674 15.5049 32.3267C15.8606 32.686 16.3435 32.888 16.8465 32.888H21.9061C22.4092 32.888 22.892 32.6861 23.2477 32.3267C23.6034 31.9674 23.8034 31.4797 23.8034 30.9715V28.443C23.8195 27.162 24.4796 25.9773 25.5553 25.2989C26.5522 24.6455 27.4427 23.8393 28.1943 22.9095C28.0992 22.9686 27.9899 23.0011 27.8781 23.0034L27.8785 23.0031ZM20.0087 30.9712H18.7438V29.0548H20.0087V30.9712ZM18.7438 27.7771C18.7435 26.9521 18.4957 26.1464 18.0326 25.4666C17.5699 24.787 16.9137 24.2651 16.1508 23.9699C14.1055 23.162 12.4304 21.6154 11.451 19.6302C10.4713 17.645 10.257 15.3629 10.8496 13.2272C11.442 11.0911 12.7992 9.2539 14.6576 8.07211L15.3287 9.153C13.7352 10.1657 12.5714 11.7405 12.0631 13.5715C11.5549 15.4027 11.7384 17.3591 12.5781 19.061C13.4181 20.7628 14.8541 22.0886 16.6074 22.781C17.6086 23.1677 18.47 23.8528 19.0773 24.7448C19.6846 25.6369 20.0096 26.6943 20.0088 27.7772L18.7438 27.7771Z" fill="#0E5295"/>
<path d="M18.1116 37.999H20.6413C20.9768 37.999 21.2986 37.8644 21.5358 37.6248C21.773 37.3853 21.9062 37.0601 21.9062 36.7213V36.0825H16.8467V36.7213C16.8467 37.0601 16.9799 37.3853 17.2171 37.6248C17.4543 37.8644 17.7761 37.999 18.1116 37.999Z" fill="#0E5295"/>
<path d="M4.6641 23.3056C4.66552 22.3722 5.00376 21.471 5.61559 20.7714C6.22771 20.0719 7.07107 19.6218 7.98808 19.5052C7.756 18.8002 7.58829 18.0749 7.48721 17.3389L7.37653 17.8705C7.28957 18.2885 7.0013 18.6354 6.60828 18.7939C6.21554 18.9524 5.77027 18.9022 5.4216 18.6601L4.10619 17.7478L2.95398 18.9091L3.85943 20.2392C4.0997 20.5911 4.14967 21.0411 3.99269 21.4382C3.83572 21.8352 3.49267 22.1263 3.07851 22.2144L1.50195 22.5498V24.0676L3.07851 24.403C3.4927 24.4911 3.83578 24.7829 3.99269 25.1799C4.1494 25.5771 4.09942 26.0271 3.85886 26.3791L2.95393 27.7021L4.10613 28.8634L5.42045 27.9485C5.76886 27.7061 6.21437 27.6556 6.60742 27.8142C7.00016 27.9727 7.28871 28.3192 7.37597 28.7376L7.70743 30.3327H9.21062L9.54209 28.7402C9.62905 28.3218 9.9176 27.9753 10.3106 27.8168C10.7037 27.6582 11.1492 27.7087 11.4976 27.9511L12.8111 28.8634L14.1677 27.4931C13.9402 26.8177 13.4904 26.2416 12.8935 25.861C12.5186 25.6157 12.1577 25.3493 11.8125 25.063C11.291 26.0885 10.3392 26.8212 9.22197 27.0573C8.10504 27.2934 6.94206 27.0077 6.05751 26.2793C5.17267 25.5512 4.66079 24.4584 4.66418 23.3057L4.6641 23.3056Z" fill="#0E5295"/>
<path d="M16.8467 33.5269H21.9062V34.8045H16.8467V33.5269Z" fill="#0E5295"/>
<path d="M35.1688 11.8011C34.6705 11.7292 34.2211 11.4602 33.9192 11.0536C33.6174 10.6469 33.4878 10.1359 33.5592 9.63249C33.6304 9.12941 33.8966 8.67542 34.2992 8.37054L35.7809 7.24745L34.2631 5.20322L32.7814 6.32572C32.379 6.63059 31.8734 6.76178 31.3753 6.69019C30.8772 6.61861 30.4278 6.35025 30.1257 5.94412C29.8236 5.53801 29.6934 5.02721 29.764 4.52418L30.0257 2.6716L27.5219 2.31055L27.2602 4.16313H27.2599C27.1887 4.66649 26.9225 5.1202 26.5199 5.42537C26.1173 5.73024 25.6113 5.86115 25.1133 5.78899C24.6152 5.71712 24.1658 5.44819 23.8639 5.04153L22.7521 3.54231L20.7282 5.07548L21.8395 6.57215H21.8392C22.1414 6.97883 22.2709 7.49016 22.1998 7.99355C22.1286 8.49662 21.8624 8.95062 21.4598 9.25579C21.0572 9.56066 20.551 9.69156 20.0526 9.61941L18.2185 9.35504L17.8594 11.8846L19.6935 12.149V12.1493C20.1915 12.2212 20.641 12.4901 20.9428 12.8967C21.2446 13.3034 21.3742 13.8145 21.3031 14.3176C21.2319 14.8207 20.9657 15.2746 20.5631 15.5795L19.0819 16.7026L20.5998 18.7468L22.0815 17.6243V17.6246C22.4841 17.3195 22.9904 17.1886 23.4884 17.2604C23.9868 17.3323 24.4362 17.6012 24.7384 18.0079C25.0402 18.4146 25.1698 18.9259 25.0983 19.4293L24.8366 21.2819L27.3461 21.6446L27.6078 19.792C27.6792 19.289 27.9452 18.835 28.3478 18.5301C28.7504 18.2252 29.2566 18.0943 29.7547 18.1662C30.2528 18.2381 30.7022 18.507 31.0041 18.9137L32.1159 20.4097L34.1398 18.8766L33.0248 17.3773C32.7229 16.9709 32.5934 16.4602 32.6645 15.9571C32.7354 15.4543 33.0011 15.0003 33.4034 14.6955C33.8055 14.3903 34.3109 14.2588 34.8089 14.3301L36.643 14.5945L37.0004 12.0654L35.1688 11.8011ZM27.4321 15.8083C26.4255 15.8083 25.4605 15.4044 24.7487 14.6858C24.0372 13.9668 23.6374 12.992 23.6374 11.9753C23.6374 10.9589 24.0372 9.98387 24.7487 9.26518C25.4605 8.54622 26.4255 8.14239 27.4321 8.14239C28.4384 8.14239 29.4036 8.54621 30.1152 9.26518C30.8269 9.98386 31.2267 10.9589 31.2267 11.9753C31.2253 12.9917 30.8253 13.966 30.114 14.6843C29.4025 15.403 28.438 15.8071 27.4321 15.8083V15.8083Z" fill="#0E5295"/>
<path d="M31.3936 24.583H35.8207V25.8607H31.3936V24.583Z" fill="#0E5295"/>
<path d="M30.3555 28.9079L31.1652 27.9263L34.9602 31.1198L34.1504 32.1014L30.3555 28.9079Z" fill="#0E5295"/>
<path d="M27.5986 29.6938H28.8635V34.1656H27.5986V29.6938Z" fill="#0E5295"/>
<path d="M0.882812 11.8255L5.94236 10.5479L6.24898 11.7867L1.18944 13.0644L0.882812 11.8255Z" fill="#0E5295"/>
<path d="M1.93359 5.29994L2.66853 4.26074L7.09534 7.45486L6.3604 8.49406L1.93359 5.29994Z" fill="#0E5295"/>
<path d="M7.35254 1.10464L8.57789 0.788086L9.87133 5.89838L8.64598 6.21493L7.35254 1.10464Z" fill="#0E5295"/>
</svg>
