<svg width="38" height="38" viewBox="0 0 38 38" fill="none" xmlns="http://www.w3.org/2000/svg">
<path d="M16.1876 9.24596C16.1868 9.53154 16.1499 9.81628 16.0776 10.0928C15.83 11.0168 15.1865 11.7839 14.3195 12.1883C13.4528 12.5927 12.4515 12.5927 11.5845 12.1883C10.7175 11.7839 10.074 11.0167 9.82639 10.0928C9.67636 9.53806 9.67636 8.95359 9.82639 8.39883C10.074 7.47482 10.7174 6.70771 11.5845 6.30331C12.4514 5.8989 13.4528 5.8989 14.3195 6.30331C15.1865 6.70773 15.83 7.4749 16.0776 8.39883C16.1499 8.67535 16.1868 8.96008 16.1876 9.24596Z" fill="#0E5295"/>
<path d="M16.1876 9.24596C16.1868 9.53154 16.1499 9.81628 16.0776 10.0928C15.83 11.0168 15.1865 11.7839 14.3195 12.1883C13.4528 12.5927 12.4515 12.5927 11.5845 12.1883C10.7175 11.7839 10.074 11.0167 9.82639 10.0928C9.67636 9.53806 9.67636 8.95359 9.82639 8.39883C10.074 7.47482 10.7174 6.70771 11.5845 6.30331C12.4514 5.8989 13.4528 5.8989 14.3195 6.30331C15.1865 6.70773 15.83 7.4749 16.0776 8.39883C16.1499 8.67535 16.1868 8.96008 16.1876 9.24596Z" fill="#0E5295"/>
<path d="M30.9939 19.4859C30.993 19.7718 30.9562 20.0565 30.8839 20.333C30.6323 21.255 29.9874 22.0191 29.1207 22.4215C28.2541 22.8239 27.254 22.8239 26.3874 22.4215C25.5209 22.0191 24.8758 21.2551 24.6242 20.333C24.4742 19.7783 24.4742 19.1938 24.6242 18.6391C24.8758 17.7171 25.521 16.953 26.3874 16.5506C27.2541 16.1479 28.2541 16.1479 29.1207 16.5506C29.9874 16.953 30.6323 17.717 30.8839 18.6391C30.9562 18.9156 30.993 19.2 30.9939 19.4859Z" fill="#0E5295"/>
<path d="M30.9939 19.4859C30.993 19.7718 30.9562 20.0565 30.8839 20.333C30.6323 21.255 29.9874 22.0191 29.1207 22.4215C28.2541 22.8239 27.254 22.8239 26.3874 22.4215C25.5209 22.0191 24.8758 21.2551 24.6242 20.333C24.4742 19.7783 24.4742 19.1938 24.6242 18.6391C24.8758 17.7171 25.521 16.953 26.3874 16.5506C27.2541 16.1479 28.2541 16.1479 29.1207 16.5506C29.9874 16.953 30.6323 17.717 30.8839 18.6391C30.9562 18.9156 30.993 19.2 30.9939 19.4859Z" fill="#0E5295"/>
<path d="M17.1114 29.7266C17.1106 30.0125 17.0734 30.2972 17.0011 30.5737C16.7538 31.4978 16.1103 32.2649 15.2434 32.6693C14.3764 33.0734 13.375 33.0734 12.508 32.6693C11.641 32.2649 10.9975 31.4977 10.7502 30.5737C10.6002 30.019 10.6002 29.4343 10.7502 28.8795C10.9975 27.9555 11.641 27.1884 12.508 26.7843C13.3749 26.3799 14.3763 26.3799 15.2434 26.7843C16.1103 27.1884 16.7538 27.9556 17.0011 28.8795C17.0734 29.1563 17.1106 29.4408 17.1114 29.7266Z" fill="#0E5295"/>
<path d="M17.1114 29.7266C17.1106 30.0125 17.0734 30.2972 17.0011 30.5737C16.7538 31.4978 16.1103 32.2649 15.2434 32.6693C14.3764 33.0734 13.375 33.0734 12.508 32.6693C11.641 32.2649 10.9975 31.4977 10.7502 30.5737C10.6002 30.019 10.6002 29.4343 10.7502 28.8795C10.9975 27.9555 11.641 27.1884 12.508 26.7843C13.3749 26.3799 14.3763 26.3799 15.2434 26.7843C16.1103 27.1884 16.7538 27.9556 17.0011 28.8795C17.0734 29.1563 17.1106 29.4408 17.1114 29.7266Z" fill="#0E5295"/>
<path d="M16.1115 8.40625C16.2615 8.96098 16.2615 9.54545 16.1115 10.1002C15.6438 10.1002 15.2646 9.72103 15.2646 9.25308C15.2646 8.78542 15.6438 8.40625 16.1115 8.40625Z" fill="#0E5295"/>
<path d="M37 9.24555C37 9.47017 36.9106 9.68542 36.7518 9.84424C36.593 10.0033 36.3775 10.0924 36.1529 10.0924H16.959C17.0832 9.53455 17.0832 8.95631 16.959 8.39844H36.1529C36.3775 8.39844 36.593 8.48777 36.7518 8.64659C36.9106 8.80541 37 9.02066 37 9.24556V9.24555Z" fill="#0E5295"/>
<path d="M8.96368 8.39844C8.83947 8.95628 8.83947 9.53452 8.96368 10.0924H2.8481C2.38044 10.0924 2.00098 9.71321 2.00098 9.24556C2.00098 8.77762 2.38044 8.39844 2.8481 8.39844H8.96368Z" fill="#0E5295"/>
<path d="M10.5634 9.24556C10.5668 9.67352 10.2509 10.0368 9.82639 10.0924C9.67636 9.53767 9.67636 8.95319 9.82639 8.39844C10.2509 8.45402 10.5669 8.81732 10.5634 9.24556Z" fill="#0E5295"/>
<path d="M30.8842 18.6392C31.0343 19.1939 31.0343 19.7784 30.8842 20.3331C30.4163 20.3331 30.0371 19.9539 30.0371 19.486C30.0371 19.0183 30.4163 18.6392 30.8842 18.6392Z" fill="#0E5295"/>
<path d="M36.9998 19.4855C36.9998 19.7101 36.9105 19.9257 36.7517 20.0845C36.5928 20.2433 36.3773 20.3326 36.1527 20.3326H31.748C31.8723 19.7748 31.8723 19.1965 31.748 18.6387H36.1527C36.3773 18.6387 36.5928 18.7277 36.7517 18.8865C36.9105 19.0456 36.9998 19.2609 36.9998 19.4855V19.4855Z" fill="#0E5295"/>
<path d="M23.7348 18.6392C23.6106 19.197 23.6106 19.7752 23.7348 20.3331H2.84712C2.37946 20.3331 2 19.9539 2 19.486C2 19.0183 2.37946 18.6392 2.84712 18.6392H23.7348Z" fill="#0E5295"/>
<path d="M25.3603 19.4855C25.364 19.9135 25.0478 20.277 24.6233 20.3326C24.4732 19.7779 24.4732 19.1934 24.6233 18.6387C25.0478 18.6943 25.364 19.0576 25.3603 19.4855Z" fill="#0E5295"/>
<path d="M17.0011 28.8877C17.1512 29.4424 17.1512 30.0272 17.0011 30.5819C16.5335 30.5819 16.1543 30.2025 16.1543 29.7348C16.1543 29.2672 16.5335 28.8877 17.0011 28.8877Z" fill="#0E5295"/>
<path d="M37.0002 29.7265C37.0002 29.9511 36.9109 30.1667 36.7521 30.3255C36.5933 30.4843 36.3777 30.5736 36.1531 30.5736H17.874C17.9982 30.0158 17.9982 29.4373 17.874 28.8794H36.1531C36.3777 28.8794 36.5933 28.9687 36.7521 29.1275C36.9109 29.2864 37.0002 29.5019 37.0002 29.7265Z" fill="#0E5295"/>
<path d="M9.88584 28.8794C9.76163 29.4372 9.76163 30.0158 9.88584 30.5736H2.84712C2.37946 30.5736 2 30.1945 2 29.7265C2 29.2589 2.37946 28.8794 2.84712 28.8794H9.88584Z" fill="#0E5295"/>
<path d="M11.487 29.7265C11.4907 30.1545 11.1745 30.518 10.7502 30.5736C10.6002 30.0189 10.6002 29.4341 10.7502 28.8794C11.1745 28.9353 11.4907 29.2986 11.487 29.7265Z" fill="#0E5295"/>
</svg>
