<svg width="38" height="38" viewBox="0 0 38 38" fill="none" xmlns="http://www.w3.org/2000/svg">
<g clip-path="url(#clip0_869_24394)">
<path d="M34.2979 2H4.70176C3.77362 2 3 2.68417 3 3.5641V24.7291C3 25.609 3.77337 26.3421 4.70151 26.3421H34.2982C35.2264 26.3421 35.9998 25.609 35.9998 24.7291L36 3.5641C36 2.68423 35.2264 2 34.2982 2H34.2979ZM33.4213 22.0409H5.57831V4.4442H33.4219L33.4213 22.0409Z" fill="#0E5295"/>
<path d="M29.967 32.5007C29.967 32.794 29.7093 32.9894 29.4515 32.9894H9.54876C9.23938 32.9894 9.0332 32.794 9.0332 32.5007C9.0332 32.2563 9.23938 32.0119 9.54876 32.0119H11.4565C11.5597 31.4743 11.8174 31.0344 12.2298 30.6433C12.7454 30.1546 13.4157 29.9102 14.1891 29.9102H24.9137C26.2542 29.9102 27.3888 30.79 27.5949 32.0119H29.5026C29.7609 32.0119 29.9671 32.2562 29.9671 32.5006L29.967 32.5007Z" fill="#0E5295"/>
<path d="M15.6846 27.3198H23.3675V28.9328H15.6846V27.3198Z" fill="#0E5295"/>
<path d="M11.5071 12.9488H7.48535C7.69153 10.9446 9.39304 9.38059 11.5071 9.13623V12.9488Z" fill="#0E5295"/>
<path d="M24.5528 13.8285H19.809L22.4387 18.8632H24.5528C24.656 18.521 24.8106 18.2277 25.0684 18.0322C25.4294 17.69 25.8933 17.4946 26.4089 17.4946C26.9244 17.4946 27.44 17.69 27.7494 18.0322C28.1104 18.3744 28.3165 18.8143 28.3165 19.303C28.3165 19.7917 28.1104 20.2805 27.7494 20.5738C27.3884 20.916 26.9244 21.1114 26.4089 21.1114C25.5323 21.1114 24.759 20.5249 24.5526 19.7428H22.1291C21.9745 19.7428 21.7681 19.645 21.7165 19.4984L18.7775 13.7795H16.4572C16.1994 15.9302 14.2915 17.5921 11.9713 17.5921C9.65099 17.5921 7.74312 15.9302 7.48535 13.7795H12.4353L12.4358 9.18495C14.5499 9.3804 16.1998 10.9934 16.4575 12.9975H18.7778L21.7168 7.32735C21.82 7.18081 21.9746 7.08298 22.1294 7.08298H24.5529C24.6561 6.74076 24.8107 6.44747 25.0685 6.25202C25.4294 5.90981 25.8934 5.71436 26.4089 5.71436C26.9245 5.71436 27.4401 5.90981 27.7494 6.25202C28.1104 6.59423 28.3166 7.03407 28.3166 7.52279C28.3166 8.01151 28.1104 8.50029 27.7494 8.79356C27.3885 9.13577 26.9245 9.33122 26.4089 9.33122C25.5324 9.33122 24.759 8.74464 24.5527 7.96258H22.4386L19.8089 12.9972H24.5527C24.6559 12.655 24.8104 12.3617 25.0682 12.1663C25.4292 11.8241 25.8932 11.6286 26.4087 11.6286C26.9243 11.6286 27.4399 11.8241 27.7492 12.1663C28.1102 12.5085 28.3164 12.9483 28.3164 13.437C28.3164 13.9258 28.1102 14.4145 27.7492 14.7078C27.3882 15.05 26.9243 15.2455 26.4087 15.2455C25.4811 15.2459 24.7591 14.6593 24.5529 13.8284L24.5528 13.8285Z" fill="#0E5295"/>
</g>
<defs>
<clipPath id="clip0_869_24394">
<rect width="38" height="38" fill="white"/>
</clipPath>
</defs>
</svg>
