<svg width="23" height="16" viewBox="0 0 23 16" fill="none" xmlns="http://www.w3.org/2000/svg">
<path d="M19.0206 0.349609H4.30927C3.31116 0.349609 2.35393 0.743644 1.64816 1.44503C0.942395 2.14642 0.545898 3.0977 0.545898 4.08961V11.9096C0.545898 12.9015 0.942395 13.8528 1.64816 14.5542C2.35393 15.2556 3.31116 15.6496 4.30927 15.6496H19.0206C20.0188 15.6496 20.976 15.2556 21.6817 14.5542C22.3875 13.8528 22.784 12.9015 22.784 11.9096V4.08961C22.784 3.0977 22.3875 2.14642 21.6817 1.44503C20.976 0.743644 20.0188 0.349609 19.0206 0.349609ZM12.6058 9.69961L9.27008 11.3996V4.59961L12.6058 6.29961L15.9415 7.99961L12.6058 9.69961Z" fill="#39374D"/>
</svg>
