<svg width="21" height="20" viewBox="0 0 21 20" fill="none" xmlns="http://www.w3.org/2000/svg">
<path d="M10.3594 0C13.0764 0 13.4154 0.00999994 14.4814 0.0599999C15.5464 0.11 16.2714 0.277 16.9094 0.525C17.5694 0.779 18.1254 1.123 18.6814 1.678C19.1899 2.1779 19.5833 2.78259 19.8344 3.45C20.0814 4.087 20.2494 4.813 20.2994 5.878C20.3464 6.944 20.3594 7.283 20.3594 10C20.3594 12.717 20.3494 13.056 20.2994 14.122C20.2494 15.187 20.0814 15.912 19.8344 16.55C19.5841 17.2178 19.1905 17.8226 18.6814 18.322C18.1813 18.8303 17.5767 19.2238 16.9094 19.475C16.2724 19.722 15.5464 19.89 14.4814 19.94C13.4154 19.987 13.0764 20 10.3594 20C7.64237 20 7.30337 19.99 6.23737 19.94C5.17237 19.89 4.44737 19.722 3.80937 19.475C3.1417 19.2245 2.5369 18.8309 2.03737 18.322C1.52878 17.8222 1.13531 17.2175 0.884375 16.55C0.636375 15.913 0.469375 15.187 0.419375 14.122C0.372375 13.056 0.359375 12.717 0.359375 10C0.359375 7.283 0.369375 6.944 0.419375 5.878C0.469375 4.812 0.636375 4.088 0.884375 3.45C1.13461 2.78218 1.52818 2.17732 2.03737 1.678C2.53705 1.16923 3.1418 0.775729 3.80937 0.525C4.44737 0.277 5.17137 0.11 6.23737 0.0599999C7.30337 0.0129999 7.64237 0 10.3594 0ZM10.3594 5C9.03329 5 7.76152 5.52678 6.82384 6.46447C5.88616 7.40215 5.35938 8.67392 5.35938 10C5.35938 11.3261 5.88616 12.5979 6.82384 13.5355C7.76152 14.4732 9.03329 15 10.3594 15C11.6855 15 12.9572 14.4732 13.8949 13.5355C14.8326 12.5979 15.3594 11.3261 15.3594 10C15.3594 8.67392 14.8326 7.40215 13.8949 6.46447C12.9572 5.52678 11.6855 5 10.3594 5V5ZM16.8594 4.75C16.8594 4.41848 16.7277 4.10054 16.4933 3.86612C16.2588 3.6317 15.9409 3.5 15.6094 3.5C15.2779 3.5 14.9599 3.6317 14.7255 3.86612C14.4911 4.10054 14.3594 4.41848 14.3594 4.75C14.3594 5.08152 14.4911 5.39946 14.7255 5.63388C14.9599 5.8683 15.2779 6 15.6094 6C15.9409 6 16.2588 5.8683 16.4933 5.63388C16.7277 5.39946 16.8594 5.08152 16.8594 4.75ZM10.3594 7C11.155 7 11.9181 7.31607 12.4807 7.87868C13.0433 8.44129 13.3594 9.20435 13.3594 10C13.3594 10.7956 13.0433 11.5587 12.4807 12.1213C11.9181 12.6839 11.155 13 10.3594 13C9.56373 13 8.80066 12.6839 8.23805 12.1213C7.67545 11.5587 7.35938 10.7956 7.35938 10C7.35938 9.20435 7.67545 8.44129 8.23805 7.87868C8.80066 7.31607 9.56373 7 10.3594 7V7Z" fill="#39374D"/>
</svg>
