<svg width="21" height="16" viewBox="0 0 21 16" fill="none" xmlns="http://www.w3.org/2000/svg">
<path d="M20.1078 1.96017C19.3906 2.26954 18.6102 2.4922 17.8062 2.57892C18.6409 2.08306 19.2659 1.2997 19.5641 0.375791C18.7809 0.841703 17.9229 1.16841 17.0281 1.34142C16.6542 0.941634 16.2019 0.62315 15.6995 0.405808C15.197 0.188467 14.6552 0.0769255 14.1078 0.0781347C11.893 0.0781347 10.1117 1.87345 10.1117 4.07657C10.1117 4.38595 10.1492 4.69532 10.2102 4.99298C6.89375 4.81954 3.93594 3.23517 1.96953 0.809385C1.61123 1.42137 1.42347 2.1182 1.42578 2.82735C1.42578 4.21485 2.13125 5.43829 3.20703 6.15782C2.57306 6.13285 1.95393 5.9586 1.4 5.64923V5.69845C1.4 7.64142 2.77344 9.25157 4.60391 9.62189C4.26022 9.71116 3.90666 9.75683 3.55156 9.75782C3.29141 9.75782 3.04531 9.73204 2.79687 9.69689C3.30312 11.2813 4.77734 12.432 6.53281 12.4695C5.15937 13.5453 3.43906 14.1781 1.57109 14.1781C1.23594 14.1781 0.926562 14.1664 0.605469 14.1289C2.37734 15.2656 4.47969 15.9219 6.74375 15.9219C14.0937 15.9219 18.1156 9.83282 18.1156 4.54767C18.1156 4.37423 18.1156 4.20079 18.1039 4.02735C18.882 3.45782 19.5641 2.75235 20.1078 1.96017Z" fill="#39374D"/>
</svg>
