<svg width="41" height="41" viewBox="0 0 41 41" fill="none" xmlns="http://www.w3.org/2000/svg">
<path d="M14.791 8.70686C14.4586 9.33697 14.1867 9.99874 13.98 10.6811L11.1207 11.1009C10.9066 11.1323 10.748 11.316 10.748 11.5323V12.7737C10.748 13.0146 10.9433 13.2097 11.1841 13.2097C11.4248 13.2097 11.6201 13.0146 11.6201 12.7737V11.9089L14.3843 11.503C14.5554 11.4779 14.6955 11.354 14.7413 11.1873C14.9622 10.3846 15.2804 9.60974 15.687 8.88423C15.7709 8.73468 15.7593 8.54981 15.6574 8.41194L13.9836 6.14733L16.8432 3.26089L19.0805 4.94552C19.2195 5.05025 19.4077 5.06211 19.559 4.97587C20.277 4.56576 21.0441 4.24478 21.8388 4.02206C22.005 3.9755 22.1281 3.83519 22.1527 3.66437L22.555 0.872011H26.5946L26.9969 3.66437C27.0215 3.83519 27.1446 3.97541 27.3109 4.02206C28.1055 4.24486 28.8726 4.56576 29.5907 4.97587C29.742 5.0622 29.9302 5.05034 30.0692 4.94552L32.3064 3.26089L35.1659 6.14733L33.4923 8.41194C33.3903 8.54981 33.3787 8.73468 33.4625 8.88423C33.8693 9.60991 34.1874 10.3848 34.4082 11.1873C34.4541 11.354 34.5942 11.4779 34.7653 11.503L37.5296 11.9089V15.9954L34.7653 16.4012C34.5942 16.4263 34.4542 16.5502 34.4083 16.717C34.1874 17.5198 33.8692 18.2947 33.4626 19.02C33.3787 19.1695 33.3904 19.3544 33.4923 19.4922L35.1659 21.7569L32.3064 24.6434L30.0692 22.9587C29.9301 22.854 29.742 22.842 29.5907 22.9284C28.8726 23.3385 28.1055 23.6594 27.3109 23.8822C27.1446 23.9288 27.0216 24.0691 26.9969 24.2399L26.5946 27.0323H22.555L22.1537 24.2472C22.1306 24.0761 22.0045 23.9303 21.8387 23.8822C21.41 23.762 20.9852 23.6118 20.576 23.4358C20.3549 23.3406 20.0984 23.4428 20.0032 23.664C19.9081 23.8852 20.0102 24.1417 20.2314 24.2368C20.5885 24.3904 20.9569 24.525 21.3293 24.64L21.7459 27.5304C21.7767 27.745 21.9606 27.9043 22.1774 27.9043H26.9723C27.1891 27.9043 27.373 27.745 27.4039 27.5304L27.8202 24.641C28.4942 24.4329 29.1481 24.1595 29.7706 23.8254L32.086 25.5689C32.2603 25.7 32.5045 25.6823 32.658 25.5273L36.0485 22.105C36.1998 21.9523 36.2172 21.712 36.0895 21.5391L34.3587 19.1973C34.691 18.5674 34.9629 17.9056 35.1696 17.2232L38.029 16.8034C38.243 16.772 38.4016 16.5883 38.4016 16.372V11.5322C38.4016 11.3159 38.243 11.1322 38.029 11.1008L35.1696 10.681C34.9629 9.99883 34.6911 9.33697 34.3586 8.70677L36.0894 6.36507C36.2172 6.19215 36.2 5.95191 36.0485 5.79914L32.658 2.37684C32.5046 2.22188 32.2601 2.2041 32.086 2.33533L29.7706 4.07883C29.1481 3.74468 28.4943 3.47122 27.8202 3.26315L27.4039 0.373831C27.3729 0.159229 27.1891 0 26.9723 0H22.1773C21.9605 0 21.7766 0.159229 21.7458 0.373831L21.3295 3.26315C20.6554 3.4713 20.0015 3.74468 19.379 4.07883L17.0637 2.33533C16.8895 2.20418 16.6452 2.2218 16.4916 2.37684L13.1011 5.79914C12.9497 5.95191 12.9323 6.19215 13.0602 6.36507L14.791 8.70686Z" fill="black"/>
<path d="M24.5758 22.4857C29.0812 22.4857 32.7466 18.8186 32.7466 14.3112C32.7466 9.80391 29.0812 6.13684 24.5758 6.13684C20.0702 6.13684 16.4047 9.80391 16.4047 14.3112C16.3573 18.6942 20.0464 22.5143 24.5758 22.4857ZM24.5758 7.00885C28.6003 7.00885 31.8746 10.2846 31.8746 14.3112C31.8746 16.2864 31.0855 18.0796 29.8078 19.3954V17.2989C29.8078 17.0581 29.6127 16.8629 29.3718 16.8629C29.131 16.8629 28.9358 17.0581 28.9358 17.2989V20.164C28.2448 20.6806 27.4589 21.0759 26.6104 21.3228V16.9273C26.6104 16.6864 26.4153 16.4913 26.1744 16.4913C25.9336 16.4913 25.7384 16.6864 25.7384 16.9273V21.5199C25.3596 21.5809 24.9715 21.6136 24.5758 21.6136C24.18 21.6136 23.7918 21.5809 23.413 21.5199V18.6713C23.413 18.4305 23.2179 18.2353 22.977 18.2353C22.7362 18.2353 22.541 18.4305 22.541 18.6713V21.3227C21.6925 21.0759 20.9067 20.6806 20.2156 20.164V16.0553C20.2156 15.8144 20.0204 15.6193 19.7796 15.6193C19.5388 15.6193 19.3436 15.8144 19.3436 16.0553V19.3954C18.414 18.4381 17.7442 17.228 17.4479 15.8788L20.7022 13.4631L22.9762 15.5075C23.1231 15.6394 23.3405 15.6563 23.5058 15.5485L27.5777 12.8936L27.252 13.7073C27.1625 13.9308 27.2711 14.1846 27.4946 14.2741C27.7126 14.363 27.9721 14.2572 28.0614 14.0314L28.8893 11.9641C29.0339 11.6927 28.8272 11.331 28.5164 11.3284L26.2502 11.2423C26.2445 11.242 26.2389 11.2419 26.2334 11.2419C26.0002 11.2419 25.8069 11.4264 25.798 11.6614C25.7888 11.9021 25.9765 12.1045 26.2171 12.1137L27.1247 12.1482L23.3102 14.6351L21.0201 12.5764C20.8659 12.4377 20.6354 12.4269 20.4688 12.5506L17.3027 14.9007C17.2871 14.7061 17.2768 14.5099 17.2768 14.3112C17.2768 10.2846 20.5512 7.00885 24.5758 7.00885Z" fill="black"/>
<path d="M29.3715 15.7501C29.6845 15.7501 29.9383 15.4963 29.9383 15.1833C29.9383 14.8702 29.6845 14.6165 29.3715 14.6165C29.0585 14.6165 28.8047 14.8702 28.8047 15.1833C28.8047 15.4963 29.0585 15.7501 29.3715 15.7501Z" fill="black"/>
<path d="M17.6664 38.274C17.9072 38.274 18.1025 38.0788 18.1025 37.838V34.802C18.1025 32.9485 17.269 31.2899 15.9498 30.1857C16.7512 29.6384 17.2495 28.7211 17.2495 27.7341C17.2495 27.1016 17.0541 26.5023 16.6914 26.0015C17.397 25.4443 17.8186 24.5922 17.8186 23.6734C17.8186 22.8069 17.4522 22.0053 16.8057 21.4413V20.7379C16.8812 17.251 13.6706 14.1347 10.1978 14.2116C6.72829 14.1354 3.52085 17.2434 3.59009 20.7279L3.59105 21.4416C2.9448 22.0056 2.57847 22.8072 2.57847 23.6735C2.57847 24.5923 3.00009 25.4445 3.70572 26.0015C3.34296 26.5024 3.14763 27.1017 3.14763 27.7342C3.14763 28.7644 3.67293 29.6917 4.50815 30.2277C3.21818 31.3319 2.40625 32.9722 2.40625 34.8021V37.838C2.40625 38.0789 2.60149 38.274 2.84226 38.274C3.08302 38.274 3.27826 38.0789 3.27826 37.838V34.802C3.27608 32.1861 5.22651 30.0259 7.74688 29.7029C7.86094 30.9864 8.94171 31.9963 10.2544 31.9963C11.567 31.9963 12.6478 30.9864 12.7618 29.7029C15.3008 30.0338 17.2304 32.1927 17.2304 34.802V37.838C17.2304 38.0788 17.4257 38.274 17.6664 38.274ZM4.01965 27.7341C4.01965 27.1579 4.24951 26.6205 4.66694 26.221C4.89497 26.0137 4.81352 25.6142 4.52855 25.5053C3.86242 25.1345 3.45048 24.4364 3.45048 23.6734C3.45048 23.0087 3.75621 22.3979 4.28927 21.9974C4.39906 21.9149 4.46359 21.7855 4.46341 21.6482L4.46219 20.7282C4.46995 17.6684 7.09662 15.0835 10.1979 15.0835C13.3046 15.0835 15.9314 17.6731 15.9338 20.7382V21.6488C15.9338 21.7859 15.9983 21.9151 16.1079 21.9974C16.641 22.3979 16.9467 23.0087 16.9467 23.6734C16.9467 24.4289 16.5428 25.1207 15.8882 25.4942C15.5877 25.5906 15.4941 26.007 15.7301 26.221C16.1476 26.6205 16.3774 27.1578 16.3774 27.7341C16.3774 28.5434 15.9035 29.2874 15.1697 29.6316C14.4553 29.206 13.6435 28.9247 12.7724 28.8262V27.7059C13.9159 26.9185 14.6673 25.6022 14.6673 24.1136V21.5499C14.6673 21.3112 14.4752 21.1168 14.2365 21.1139C12.3489 21.1588 10.5324 20.3593 9.32627 18.9015C9.14463 18.6708 8.75528 18.7035 8.61453 18.9609C8.10188 19.9854 7.31907 20.9243 6.16078 21.2068C5.9719 21.2591 5.8411 21.431 5.8411 21.6269V24.1137C5.8411 25.6024 6.59251 26.9186 7.73616 27.706V28.8263C6.84601 28.9269 6.01795 29.2189 5.29226 29.6603C4.52384 29.333 4.01965 28.5827 4.01965 27.7341ZM6.7132 24.1135V21.9453C7.72255 21.5849 8.55306 20.8594 9.06868 19.9132C10.3205 21.1753 12.006 21.9162 13.7954 21.9788V24.1135C13.7983 26.0699 12.1682 27.6516 10.2101 27.6031C8.28195 27.6031 6.7132 26.0377 6.7132 24.1135ZM10.2544 31.1243C9.34667 31.1243 8.60834 30.3858 8.60834 29.4782V28.1701C9.61665 28.5787 10.8921 28.5787 11.9004 28.1701V29.4782C11.9004 30.3858 11.162 31.1243 10.2544 31.1243Z" fill="black"/>
<path d="M5.45898 36.0766V37.8379C5.45898 38.0788 5.65423 38.2739 5.89499 38.2739C6.13575 38.2739 6.331 38.0788 6.331 37.8379V36.0766C6.331 35.8358 6.13575 35.6406 5.89499 35.6406C5.65423 35.6406 5.45898 35.8358 5.45898 36.0766Z" fill="black"/>
<path d="M14.1797 36.0767V37.838C14.1797 38.0788 14.3749 38.274 14.6157 38.274C14.8565 38.274 15.0517 38.0788 15.0517 37.838V36.0767C15.0517 35.8358 14.8565 35.6407 14.6157 35.6407C14.3749 35.6407 14.1797 35.8358 14.1797 36.0767Z" fill="black"/>
<path d="M25.8383 36.5771H33.6352C33.876 36.5771 34.0712 36.3819 34.0712 36.1411C34.0712 35.9002 33.876 35.7051 33.6352 35.7051H25.8383C25.5975 35.7051 25.4023 35.9002 25.4023 36.1411C25.4023 36.3819 25.5975 36.5771 25.8383 36.5771Z" fill="black"/>
<path d="M37.6454 35.7051H36.2231C35.9823 35.7051 35.7871 35.9002 35.7871 36.1411C35.7871 36.3819 35.9823 36.5771 36.2231 36.5771H37.6454C37.8862 36.5771 38.0814 36.3819 38.0814 36.1411C38.0814 35.9002 37.8862 35.7051 37.6454 35.7051Z" fill="black"/>
<path d="M30.5829 31.7812C30.5829 31.5403 30.3877 31.3452 30.1469 31.3452H22.3501C22.1092 31.3452 21.9141 31.5403 21.9141 31.7812C21.9141 32.022 22.1092 32.2172 22.3501 32.2172H30.1469C30.3877 32.2172 30.5829 32.022 30.5829 31.7812Z" fill="black"/>
<path d="M34.5931 31.7812C34.5931 31.5404 34.3979 31.3452 34.1571 31.3452H32.7348C32.494 31.3452 32.2988 31.5404 32.2988 31.7812C32.2988 32.0221 32.494 32.2172 32.7348 32.2172H34.1571C34.3979 32.2172 34.5931 32.0221 34.5931 31.7812Z" fill="black"/>
<path d="M5.84259 11.2008C8.93073 11.2008 11.4431 8.68846 11.4431 5.6004C11.4431 2.51235 8.93073 0 5.84259 0C2.75454 0 0.242188 2.51244 0.242188 5.60049C0.242188 8.68854 2.75454 11.2008 5.84259 11.2008ZM5.84259 0.872011C8.44982 0.872011 10.5711 2.99318 10.5711 5.60049C10.5711 8.20781 8.44991 10.3289 5.84259 10.3289C3.23528 10.3289 1.1142 8.20772 1.1142 5.60049C1.1142 2.99327 3.23537 0.872011 5.84259 0.872011Z" fill="black"/>
<path d="M5.58667 5.96119L6.95843 7.3292C7.129 7.49933 7.40499 7.4989 7.57503 7.32833C7.74507 7.15785 7.74464 6.88177 7.57416 6.71182L6.27826 5.41941V3.26877C6.27826 3.02792 6.08302 2.83276 5.84226 2.83276C5.60149 2.83276 5.40625 3.02792 5.40625 3.26877V5.60794C5.40625 5.7533 5.47732 5.88201 5.58667 5.96119Z" fill="black"/>
<path d="M40.3741 40.018H0.436006C0.195243 40.018 0 40.2132 0 40.454C0 40.6949 0.195243 40.89 0.436006 40.89H40.3741C40.615 40.89 40.8101 40.6949 40.8101 40.454C40.8101 40.2132 40.615 40.018 40.3741 40.018Z" fill="black"/>
</svg>
