<svg width="38" height="38" viewBox="0 0 38 38" fill="none" xmlns="http://www.w3.org/2000/svg">
<path d="M12.1301 10.5074C12.1358 10.5738 12.1409 10.6396 12.1463 10.7057C12.5891 15.7123 15.5175 19.5806 19.0665 19.5806C22.6158 19.5806 25.5447 15.7122 25.9868 10.7057C25.9937 10.6396 25.9988 10.5743 26.0045 10.5074C26.036 10.29 26.057 10.0702 26.0698 9.84713C26.0775 9.69499 26.0844 9.54157 26.0844 9.38661C26.0844 9.00702 26.0575 8.63124 26.0042 8.26628C25.4904 4.71834 22.5797 2 19.0669 2C15.5535 2 12.6436 4.71834 12.1302 8.26602C12.0767 8.63126 12.0498 9.00676 12.0498 9.38635C12.0498 9.54157 12.0567 9.69524 12.0649 9.84687C12.077 10.0705 12.0982 10.2905 12.1302 10.5074H12.1301ZM14.7386 6.52535C14.7386 6.52535 16.7574 7.50582 19.0662 7.56936C21.3747 7.50584 23.3946 6.52535 23.3946 6.52535C24.8579 7.10268 24.1643 11.2177 24.1643 11.2177C24.53 10.9626 24.8648 10.8307 25.1376 10.7623C24.7355 15.1355 22.1713 18.5068 19.0659 18.5068C15.9609 18.5068 13.3972 15.1353 12.9943 10.7623C13.2671 10.8307 13.6023 10.9623 13.9673 11.2177C13.9678 11.2179 13.275 7.10237 14.7386 6.52535V6.52535Z" fill="#0E5295"/>
<path d="M25.1411 18.6696C25.1252 18.667 25.1083 18.6668 25.0929 18.6637C24.963 18.6468 24.8332 18.6322 24.7023 18.6196C24.7015 18.6324 24.6974 18.6458 24.6974 18.6586C24.6956 18.6972 24.689 18.7346 24.6841 18.7736C24.6606 18.9913 24.5952 19.2021 24.4936 19.4052C23.906 20.8846 22.1884 23.5016 20.8926 25.3797C24.7364 26.0913 27.8037 29.0028 28.7446 32.761C31.3782 32.3553 33.1322 31.1937 33.1322 27.8642C33.1327 23.1746 29.6572 19.2981 25.1411 18.6693L25.1411 18.6696Z" fill="#0E5295"/>
<path d="M17.2398 25.3815C15.944 23.5025 14.2258 20.8856 13.6388 19.4062C13.5371 19.203 13.4721 18.9923 13.4475 18.7745C13.4426 18.7356 13.4364 18.6982 13.4349 18.6595C13.4341 18.6467 13.4298 18.6332 13.4298 18.6206C13.2992 18.6326 13.169 18.6478 13.0394 18.6647C13.0233 18.6675 13.0061 18.668 12.991 18.6706C8.47489 19.2991 5 23.1757 5 27.8655C5 31.1952 6.754 32.3562 9.38756 32.7622C10.3288 29.0038 13.3968 26.0918 17.2396 25.3817L17.2398 25.3815Z" fill="#0E5295"/>
<path d="M20.9521 21.4957C21.1035 21.2275 21.195 20.9342 21.195 20.6343C21.195 20.6343 20.2252 21.0638 19.236 21.0638C19.1794 21.0638 19.1228 21.063 19.0665 21.0602C19.0099 21.063 18.9533 21.0638 18.8969 21.0638C17.9072 21.0638 16.9375 20.6343 16.9375 20.6343C16.9375 20.934 17.03 21.2272 17.1806 21.4957C17.3896 21.8694 17.7169 22.1918 18.096 22.3865L17.8937 25.2826C18.2784 25.2383 18.6695 25.2117 19.0665 25.2117C19.4635 25.2117 19.8547 25.238 20.2394 25.2826L20.0368 22.3865C20.4171 22.1918 20.7434 21.8691 20.9522 21.4957H20.9521Z" fill="#0E5295"/>
<path d="M18.8291 26.4077C16.6212 26.4671 14.6208 27.3536 13.125 28.7696L15.3703 31.0148C16.289 30.1721 17.4974 29.6401 18.8288 29.5828L18.8291 26.4077Z" fill="#0E5295"/>
<path d="M10.4212 35.0352C10.4212 35.0395 10.4209 35.0429 10.4209 35.0472H13.5965C13.5965 35.0429 13.5972 35.0395 13.5972 35.0352C13.6 33.6152 14.1443 32.3212 15.0344 31.3512L12.7894 29.1064C11.3248 30.6522 10.424 32.7379 10.4212 35.0352H10.4212Z" fill="#0E5295"/>
<path d="M19.3037 26.4077V29.5825C20.6433 29.6399 21.8576 30.1793 22.7792 31.0312L25.0244 28.7859C23.5271 27.3606 21.52 26.4672 19.3037 26.4077V26.4077Z" fill="#0E5295"/>
<path d="M25.3615 29.1221L23.1162 31.3673C23.9968 32.3363 24.5344 33.6223 24.5372 35.0341C24.5372 35.0385 24.538 35.0418 24.538 35.0462H27.7131C27.7131 35.0418 27.7128 35.0385 27.7128 35.0341C27.7097 32.7459 26.8161 30.6668 25.3615 29.1221H25.3615Z" fill="#0E5295"/>
<path d="M18.6798 34.9452C19.1117 35.1588 19.6345 34.9818 19.8483 34.55C20.0619 34.1181 20.784 30.6929 20.784 30.6929C20.784 30.6929 18.4985 33.3451 18.2852 33.7764C18.0713 34.2085 18.248 34.7315 18.6799 34.9452L18.6798 34.9452Z" fill="#0E5295"/>
</svg>
