<svg width="62" height="62" viewBox="0 0 62 62" fill="none" xmlns="http://www.w3.org/2000/svg">
<circle cx="31" cy="31" r="31" fill="#1BCCAA"/>
<path d="M33.666 40.3333C38.694 40.3333 41.2087 40.3333 42.77 38.7707C44.3327 37.2093 44.3327 34.6947 44.3327 29.6667C44.3327 24.6387 44.3327 22.124 42.77 20.5627C41.2087 19 38.694 19 33.666 19H28.3327C23.3047 19 20.79 19 19.2287 20.5627C17.666 22.124 17.666 24.6387 17.666 29.6667C17.666 34.6947 17.666 37.2093 19.2287 38.7707C20.0993 39.6427 21.266 40.028 22.9993 40.1973" stroke="white" stroke-width="2" stroke-linecap="round" stroke-linejoin="round"/>
<path d="M27 29.6667L30 32.3333L35 27" stroke="white" stroke-width="2" stroke-linecap="round" stroke-linejoin="round"/>
<path d="M33.666 40.3335C32.018 40.3335 30.202 41.0002 28.5447 41.8602C25.8807 43.2428 24.5487 43.9348 23.8927 43.4935C23.2367 43.0535 23.3607 41.6868 23.61 38.9548L23.666 38.3335" stroke="white" stroke-width="2" stroke-linecap="round"/>
</svg>
