<svg width="53" height="53" viewBox="0 0 53 53" fill="none" xmlns="http://www.w3.org/2000/svg">
<path fill-rule="evenodd" clip-rule="evenodd" d="M37.9039 47.89H10.9418C10.6939 47.89 10.4922 47.6891 10.4922 47.4403L10.4924 11.4918C10.4924 11.2439 10.6933 11.0422 10.942 11.0422H37.9038C38.1517 11.0422 38.3534 11.2431 38.3534 11.4918V26.9221C38.3534 27.1701 38.1525 27.3718 37.9038 27.3718C37.6551 27.3718 37.4542 27.1709 37.4542 26.9221V11.9407H11.3914V46.9909H37.4542V34.0405C37.4542 33.792 37.6551 33.5909 37.9038 33.5909C38.1525 33.5909 38.3534 33.7917 38.3534 34.0405V47.4405C38.3526 47.689 38.1517 47.89 37.9038 47.89L37.9039 47.89Z" fill="#0E0E0E"/>
<path fill-rule="evenodd" clip-rule="evenodd" d="M42.8954 25.9645C42.8185 25.9645 42.74 25.9448 42.6687 25.9027L39.5661 24.0874C39.352 23.9619 39.2801 23.6864 39.4053 23.4729C39.5307 23.2587 39.8063 23.1869 40.0203 23.3119L43.1235 25.1272C43.3375 25.2527 43.4095 25.5276 43.2839 25.7418C43.2 25.8851 43.0496 25.9645 42.8954 25.9645L42.8954 25.9645Z" fill="#0E0E0E"/>
<path fill-rule="evenodd" clip-rule="evenodd" d="M36.54 36.8222C36.463 36.8222 36.3847 36.8025 36.3136 36.7604L33.2105 34.9451C32.9965 34.8196 32.9245 34.5446 33.05 34.3306C33.1752 34.1165 33.4504 34.0439 33.6651 34.1697L36.7676 35.9849C36.9818 36.1105 37.0537 36.3853 36.9286 36.5995C36.8454 36.7426 36.6943 36.8222 36.54 36.8222L36.54 36.8222Z" fill="#0E0E0E"/>
<path fill-rule="evenodd" clip-rule="evenodd" d="M35.1806 39.1503C35.1037 39.1503 35.0252 39.1306 34.9543 39.0885L31.8512 37.2732C31.6371 37.1477 31.5651 36.8722 31.6907 36.6586C31.8158 36.4446 32.0911 36.372 32.3052 36.4978L35.4083 38.313C35.6224 38.4386 35.6943 38.7135 35.5688 38.9276C35.4854 39.0709 35.335 39.1503 35.1806 39.1503V39.1503Z" fill="#0E0E0E"/>
<path fill-rule="evenodd" clip-rule="evenodd" d="M30.9046 42.8988C30.8262 42.8988 30.7471 42.878 30.6779 42.8369C30.5478 42.7609 30.4648 42.6253 30.4561 42.4755L30.2663 39.2408C30.2614 39.1522 30.2821 39.0642 30.3272 38.9876L40.7662 21.1463C41.0695 20.6283 41.5561 20.2593 42.1365 20.1076C42.7167 19.9552 43.3222 20.0387 43.8399 20.3419C44.9091 20.9675 45.2699 22.3467 44.6443 23.4157L34.2056 41.2572C34.1606 41.3337 34.0942 41.3953 34.0148 41.4343L31.1015 42.8538C31.0387 42.8836 30.9714 42.8988 30.9046 42.8988L30.9046 42.8988ZM31.171 39.3244L31.3131 41.7502L33.4978 40.6856L43.8676 22.9621C44.2432 22.3202 44.0267 21.4931 43.3853 21.1176C43.0745 20.9358 42.7115 20.8856 42.3627 20.9767C42.0139 21.0678 41.7223 21.2896 41.5406 21.5999L31.171 39.3244L31.171 39.3244ZM33.8174 41.0302H33.8183H33.8174Z" fill="#0E0E0E"/>
<path fill-rule="evenodd" clip-rule="evenodd" d="M10.9432 43.8485H6.44959C6.20168 43.8485 6 43.6476 6 43.3988L6.00019 7.44959C6.00019 7.20168 6.20112 7 6.44978 7L32.9621 7.00019C33.2101 7.00019 33.4118 7.20112 33.4118 7.44978V11.494C33.4118 11.742 33.2109 11.9436 32.9621 11.9436C32.7135 11.9436 32.5125 11.7428 32.5125 11.494V7.8988L6.89871 7.89861V42.9488H10.9429C11.1909 42.9488 11.3925 43.1497 11.3925 43.3984C11.3929 43.6474 11.1915 43.8483 10.9433 43.8483L10.9432 43.8485Z" fill="#0E0E0E"/>
<path fill-rule="evenodd" clip-rule="evenodd" d="M33.9902 16.8845H14.8558C14.6078 16.8845 14.4062 16.6837 14.4062 16.4349C14.4062 16.1863 14.6071 15.9854 14.8558 15.9854L33.9902 15.9855C34.2382 15.9855 34.4398 16.1865 34.4398 16.4351C34.4398 16.6839 34.2388 16.8845 33.9902 16.8845V16.8845Z" fill="#0E0E0E"/>
<path fill-rule="evenodd" clip-rule="evenodd" d="M33.9902 19.5813H14.8558C14.6078 19.5813 14.4062 19.3804 14.4062 19.1316C14.4062 18.8829 14.6071 18.682 14.8558 18.682L33.9902 18.6822C34.2382 18.6822 34.4398 18.8831 34.4398 19.1318C34.4398 19.3805 34.2388 19.5813 33.9902 19.5813V19.5813Z" fill="#0E0E0E"/>
<path fill-rule="evenodd" clip-rule="evenodd" d="M33.9902 22.2779H14.8558C14.6078 22.2779 14.4062 22.077 14.4062 21.8283C14.4062 21.5796 14.6071 21.3787 14.8558 21.3787L33.9902 21.3789C34.2382 21.3789 34.4398 21.5798 34.4398 21.8285C34.4398 22.0772 34.2388 22.2779 33.9902 22.2779V22.2779Z" fill="#0E0E0E"/>
<path fill-rule="evenodd" clip-rule="evenodd" d="M33.9902 24.9746H14.8558C14.6078 24.9746 14.4062 24.7737 14.4062 24.525C14.4062 24.2763 14.6071 24.0754 14.8558 24.0754L33.9902 24.0756C34.2382 24.0756 34.4398 24.2765 34.4398 24.5252C34.4398 24.774 34.2388 24.9746 33.9902 24.9746V24.9746Z" fill="#0E0E0E"/>
<path fill-rule="evenodd" clip-rule="evenodd" d="M33.9902 27.6714H14.8558C14.6078 27.6714 14.4062 27.4706 14.4062 27.2218C14.4062 26.9731 14.6071 26.7722 14.8558 26.7722L33.9902 26.7724C34.2382 26.7724 34.4398 26.9733 34.4398 27.222C34.4398 27.4708 34.2388 27.6714 33.9902 27.6714V27.6714Z" fill="#0E0E0E"/>
<path fill-rule="evenodd" clip-rule="evenodd" d="M33.9902 30.3681H14.8558C14.6078 30.3681 14.4062 30.1672 14.4062 29.9185C14.4062 29.6698 14.6071 29.4689 14.8558 29.4689L33.9902 29.4691C34.2382 29.4691 34.4398 29.67 34.4398 29.9187C34.4398 30.1674 34.2388 30.3681 33.9902 30.3681V30.3681Z" fill="#0E0E0E"/>
<path fill-rule="evenodd" clip-rule="evenodd" d="M26.6719 33.0648H14.8578C14.6098 33.0648 14.4082 32.8639 14.4082 32.6152C14.4082 32.3665 14.609 32.1655 14.8578 32.1655L26.6719 32.1657C26.9199 32.1657 27.1215 32.3666 27.1215 32.6154C27.1215 32.8641 26.9204 33.0648 26.6719 33.0648V33.0648Z" fill="#0E0E0E"/>
<path fill-rule="evenodd" clip-rule="evenodd" d="M41.9497 13.7394C40.711 13.7394 39.7031 12.7316 39.7031 11.4929C39.7031 10.2543 40.711 9.24634 41.9497 9.24634C43.1883 9.24634 44.1962 10.2543 44.1962 11.4929C44.1962 12.7316 43.1883 13.7394 41.9497 13.7394ZM41.9497 10.1442C41.2059 10.1442 40.6016 10.7492 40.6016 11.4923C40.6016 12.2354 41.2059 12.8404 41.9497 12.8404C42.6933 12.8404 43.2977 12.2354 43.2977 11.4923C43.2977 10.7492 42.6933 10.1442 41.9497 10.1442Z" fill="#0E0E0E"/>
<path fill-rule="evenodd" clip-rule="evenodd" d="M42.3993 46.5432C40.9121 46.5432 39.7031 45.3338 39.7031 43.847C39.7031 42.3602 40.9125 41.1509 42.3993 41.1509C43.886 41.1509 45.0954 42.3608 45.0954 43.847C45.0952 45.3338 43.8855 46.5432 42.3993 46.5432ZM42.3993 42.0495C41.408 42.0495 40.6017 42.856 40.6017 43.847C40.6017 44.8381 41.4082 45.6445 42.3993 45.6445C43.3903 45.6445 44.1968 44.8381 44.1968 43.847C44.1968 42.856 43.3903 42.0495 42.3993 42.0495Z" fill="#0E0E0E"/>
</svg>
