<svg width="53" height="53" viewBox="0 0 53 53" fill="none" xmlns="http://www.w3.org/2000/svg">
<path d="M26.497 0C24.6437 0 23.0886 1.29926 22.6704 3.02859H7.52102V1.09938C7.51898 0.594752 7.10818 0.187209 6.60354 0.189256H0.910138C0.881174 0.188032 0.851801 0.188032 0.822836 0.189256C0.355321 0.236169 -0.000406949 0.629842 3.49404e-07 1.09938V6.79271C0.00204008 7.29489 0.408364 7.7012 0.910134 7.70325H6.60353C7.10857 7.70488 7.51897 7.29734 7.52102 6.79271V4.85619H18.4721C12.2525 7.83987 7.97218 14.1806 7.97218 21.551V23.0751C6.24127 23.4945 4.93624 25.0536 4.93624 26.9069C4.93624 29.0772 6.71937 30.853 8.88964 30.853C11.0599 30.853 12.8357 29.0772 12.8357 26.9069C12.8357 25.0511 11.5331 23.4899 9.7998 23.073V21.5506C9.7998 13.7951 15.0154 7.32981 22.1378 5.42389L22.1382 5.4243C22.3801 5.36147 22.5857 5.20197 22.7073 4.9833C23.1679 6.65101 24.6871 7.89232 26.4963 7.89232C28.3072 7.89232 29.8321 6.64851 30.2927 4.97798C30.4111 5.19664 30.6134 5.35777 30.8533 5.42427C37.9761 7.33061 43.1986 13.7961 43.1986 21.551V23.0734C41.4656 23.4903 40.1626 25.0515 40.1626 26.9073C40.1626 29.0775 41.9385 30.8533 44.1087 30.8533C46.279 30.8533 48.0621 29.0775 48.0621 26.9073C48.0621 25.054 46.7571 23.4948 45.0262 23.0755V21.5514C45.0262 14.1815 40.7423 7.84025 34.521 4.85656H45.4774V6.79308L45.477 6.79268C45.479 7.2973 45.8898 7.70485 46.3944 7.70322H52.0825C52.5871 7.70485 52.998 7.29731 53 6.79268V1.09935C52.998 0.594721 52.5872 0.187177 52.0825 0.189224H46.3944C46.3634 0.187592 46.3324 0.187592 46.3014 0.189224H46.2998C45.8323 0.236138 45.4766 0.629811 45.477 1.09935V3.02856L30.3276 3.02897C29.9082 1.29933 28.3486 0.000376673 26.4957 0.000376673L26.497 0ZM26.497 1.8207C27.6797 1.8207 28.6208 2.76387 28.6208 3.94646C28.6208 5.12907 27.6793 6.06491 26.497 6.06491C25.3144 6.06491 24.3786 5.12908 24.3786 3.94646C24.3786 2.76385 25.3144 1.8207 26.497 1.8207ZM1.82836 2.01693H5.69414V3.86249C5.69006 3.91348 5.69006 3.96488 5.69414 4.01588V5.87575H1.82836V2.01693ZM47.3079 2.01693H51.172V5.87566H47.3079V4.00681C47.3099 3.96887 47.3099 3.93053 47.3079 3.89258V2.01693ZM26.5117 11.396C26.4802 11.3952 26.4484 11.3965 26.417 11.3993H26.4154C26.0988 11.4287 25.8202 11.6208 25.6798 11.906L14.8875 33.4977H14.8879C14.7435 33.7862 14.7618 34.1296 14.936 34.4009L19.596 41.5987H18.3824C18.1368 41.5934 17.899 41.6873 17.7232 41.8594C17.5473 42.0312 17.4482 42.2665 17.4482 42.5125C17.4482 42.7585 17.5473 42.9943 17.7232 43.1661C17.899 43.3382 18.1368 43.432 18.3824 43.4263H20.3316V52.0809C20.33 52.3248 20.4262 52.559 20.5984 52.7316C20.7709 52.9041 21.0051 53.0008 21.2487 53H31.7517C31.9957 53.0008 32.2298 52.9041 32.4024 52.7316C32.5746 52.559 32.6708 52.3248 32.6692 52.0809V43.4267H34.618L34.6184 43.4263C34.864 43.4321 35.1018 43.3382 35.2776 43.1661C35.4535 42.9943 35.5526 42.7585 35.5526 42.5125C35.5526 42.2665 35.4535 42.0312 35.2776 41.8594C35.1018 41.6873 34.864 41.5934 34.6184 41.5987H33.4064L38.0664 34.4009C38.2402 34.1292 38.2578 33.7858 38.1129 33.4977L27.3206 11.906C27.1684 11.5972 26.8559 11.4001 26.512 11.3957L26.5117 11.396ZM25.5872 16.1792V28.4262C25.5983 28.9231 26.0042 29.32 26.501 29.32C26.9979 29.32 27.4038 28.9231 27.4149 28.4262V16.1939L36.2441 33.8432L31.2325 41.5999H21.7676L16.749 33.8432L25.5872 16.1792ZM8.89011 24.7837C10.0727 24.7837 11.0086 25.7252 11.0086 26.9074C11.0086 28.0901 10.0727 29.0259 8.89011 29.0259C7.70747 29.0259 6.76631 28.0901 6.76631 26.9074C6.76631 25.7248 7.70786 24.7837 8.89011 24.7837ZM44.1089 24.7837C45.2915 24.7837 46.2346 25.7252 46.2346 26.9074C46.2346 28.0901 45.2915 29.0259 44.1089 29.0259C42.9262 29.0259 41.9904 28.0901 41.9904 26.9074C41.9904 25.7248 42.9262 24.7837 44.1089 24.7837ZM22.1597 43.4272H30.8409V51.1712H22.1597V43.4272Z" fill="black"/>
</svg>
