<svg width="54" height="52" viewBox="0 0 54 52" fill="none" xmlns="http://www.w3.org/2000/svg">
<path d="M22.8242 12.8574L27.0015 9.82545L31.1788 12.8574L29.5835 7.94999L33.7627 4.91371H28.5973L27.0015 0L25.4057 4.91371H20.2402L24.4195 7.94999L22.8242 12.8574Z" fill="black"/>
<path d="M6.89072 19.3175L11.068 16.2855L15.2458 19.3131L13.65 14.4099L17.8273 11.3737H12.6637L11.0679 6.45996L9.47025 11.3737H4.30664L8.48392 14.4099L6.89072 19.3175Z" fill="black"/>
<path d="M38.7535 19.3175L42.9313 16.2855L47.1085 19.3131L45.5152 14.4099L49.6925 11.3737H44.5266L42.9313 6.45996L41.3355 11.3737H36.1719L40.3492 14.4099L38.7535 19.3175Z" fill="black"/>
<path d="M26.9984 36.8592C32.3408 36.8592 36.6883 32.5137 36.6883 27.1693C36.6883 21.8294 32.3408 17.4795 26.9984 17.4795C21.656 17.4795 17.3086 21.8294 17.3086 27.1693C17.3086 32.5142 21.656 36.8592 26.9984 36.8592ZM26.9984 19.6328C31.1541 19.6328 34.535 23.0137 34.535 27.1693C34.535 31.325 31.1541 34.7059 26.9984 34.7059C22.8428 34.7059 19.4619 31.325 19.4619 27.1693C19.4619 23.0137 22.8428 19.6328 26.9984 19.6328Z" fill="black"/>
<path d="M27.0013 41.167C15.0808 41.167 10.8516 46.3868 10.8516 50.8568V51.9335H43.1511V50.8568C43.1511 46.3844 38.9219 41.167 27.0013 41.167ZM13.1107 49.7802C13.9119 45.8226 19.1851 43.3203 27.0013 43.3203C34.8176 43.3203 40.0909 45.8226 40.892 49.7802H13.1107Z" fill="black"/>
<path d="M9.34336 29.3855L13.5206 26.3493H8.35702L6.76124 21.4355L5.16362 26.3493H0L4.17728 29.3855L2.58396 34.293L6.76124 31.261L10.939 34.2885L9.34336 29.3855Z" fill="black"/>
<path d="M53.9991 25.7414H48.8332L47.2379 20.8271L45.6421 25.7414H40.4785L44.6558 28.7771L43.06 33.6846L47.2378 30.657L51.4151 33.6846L49.8217 28.7771L53.9991 25.7414Z" fill="black"/>
</svg>
