<svg width="46" height="46" viewBox="0 0 46 46" fill="none" xmlns="http://www.w3.org/2000/svg">
<path d="M0.73389 45.517H9.54057C9.73518 45.517 9.92193 45.4397 10.0595 45.3021C10.1971 45.1645 10.2745 44.9777 10.2745 44.7831V39.6459C10.2712 38.7655 9.95108 37.9153 9.37316 37.2512C8.79523 36.5871 7.9978 36.1526 7.12594 36.0278C7.8677 35.4682 8.3395 34.6223 8.42564 33.6971C8.51148 32.7722 8.20384 31.8536 7.5781 31.1668C6.95234 30.4801 6.06646 30.0889 5.13723 30.0889C4.208 30.0889 3.32213 30.4801 2.69635 31.1668C2.07058 31.8535 1.76293 32.7722 1.84882 33.6971C1.93498 34.6223 2.40676 35.4682 3.14851 36.0278C2.27665 36.1527 1.47927 36.5871 0.901301 37.2512C0.323331 37.9153 0.00327105 38.7655 0 39.6459V44.7831C0 44.9777 0.0773209 45.1645 0.214925 45.3021C0.352529 45.4397 0.539279 45.517 0.73389 45.517V45.517ZM5.13723 31.5731C5.62376 31.5731 6.09061 31.7664 6.43466 32.1104C6.77871 32.4544 6.97197 32.9213 6.97197 33.4078C6.97197 33.8944 6.77867 34.3612 6.43466 34.7053C6.09066 35.0493 5.62378 35.2426 5.13723 35.2426C4.65068 35.2426 4.18384 35.0493 3.83979 34.7053C3.49575 34.3613 3.30249 33.8944 3.30249 33.4078C3.30249 32.9213 3.49579 32.4544 3.83979 32.1104C4.1838 31.7663 4.65068 31.5731 5.13723 31.5731ZM1.46778 39.6459C1.46778 39.062 1.69974 38.5018 2.11255 38.089C2.52537 37.6763 3.08565 37.4442 3.66941 37.4442H6.60497C7.1888 37.4442 7.74908 37.6762 8.16182 38.089C8.57456 38.5018 8.80659 39.0621 8.80659 39.6459V44.0492H1.4677L1.46778 39.6459Z" fill="black"/>
<path d="M14.6777 22.0332H16.1455V23.501H14.6777V22.0332Z" fill="black"/>
<path d="M29.3555 22.0332H30.8232V23.501H29.3555V22.0332Z" fill="black"/>
<path d="M22.0176 14.6943H23.4854V16.1621H22.0176V14.6943Z" fill="black"/>
<path d="M16.5215 17.5789L17.5594 16.541L18.5973 17.5789L17.5594 18.6169L16.5215 17.5789Z" fill="black"/>
<path d="M26.9043 27.9559L27.9422 26.918L28.9802 27.9559L27.9422 28.9938L26.9043 27.9559Z" fill="black"/>
<path d="M16.5195 27.9539L17.5575 26.916L18.5954 27.9539L17.5575 28.9919L16.5195 27.9539Z" fill="black"/>
<path d="M26.9043 17.5789L27.9422 16.541L28.9802 17.5789L27.9422 18.6169L26.9043 17.5789Z" fill="black"/>
<path d="M17.7368 21.6073C17.4894 22.6803 17.5933 23.8043 18.0333 24.8141C18.4733 25.8235 19.2262 26.6648 20.1806 27.2139V29.0048C20.1806 29.9225 20.6701 30.7704 21.4649 31.2294C22.2597 31.6881 23.2386 31.6881 24.0335 31.2294C24.8283 30.7704 25.3178 29.9225 25.3178 29.0048V27.2139C26.8144 26.346 27.7737 24.7833 27.87 23.0557C27.966 21.3284 27.1863 19.6686 25.7955 18.6399C24.4044 17.6111 22.589 17.3514 20.9656 17.9493C19.3419 18.5472 18.1283 19.922 17.7368 21.6072L17.7368 21.6073ZM23.8501 29.0048C23.8501 29.6129 23.3573 30.1056 22.7492 30.1056C22.1411 30.1056 21.6484 29.6129 21.6484 29.0048V28.6379H23.8501V29.0048ZM22.7492 19.0977C23.8727 19.0987 24.9335 19.6144 25.6284 20.497C26.3236 21.3796 26.5759 22.532 26.3135 23.6243C26.0514 24.7165 25.3031 25.6284 24.2832 26.0992C24.023 26.2194 23.8566 26.4802 23.8573 26.7669V27.1705H21.6556V26.7669C21.6566 26.4802 21.4901 26.2194 21.23 26.0992C20.295 25.668 19.5837 24.8637 19.2705 23.8828C18.9573 22.9019 19.0706 21.8344 19.5827 20.9413C20.0951 20.0479 20.9591 19.411 21.9639 19.1859C22.2218 19.1285 22.4852 19.099 22.7493 19.0977L22.7492 19.0977Z" fill="black"/>
<path d="M42.3525 5.93897C43.0943 5.37938 43.5661 4.53343 43.6522 3.60822C43.738 2.68335 43.4304 1.76469 42.8047 1.07794C42.1789 0.391226 41.293 0 40.3638 0C39.4346 0 38.5487 0.391193 37.9229 1.07794C37.2971 1.76465 36.9895 2.68335 37.0754 3.60822C37.1615 4.53343 37.6333 5.37937 38.3751 5.93897C37.5032 6.0638 36.7058 6.49824 36.1279 7.16234C35.5499 7.82645 35.2298 8.67667 35.2266 9.55701V14.6942C35.2266 14.8888 35.3039 15.0756 35.4415 15.2132C35.5791 15.3508 35.7658 15.4281 35.9605 15.4281H44.7671C44.9617 15.4281 45.1485 15.3508 45.2861 15.2132C45.4237 15.0756 45.501 14.8888 45.501 14.6942V9.55701C45.4977 8.67667 45.1776 7.82645 44.5997 7.16234C44.0218 6.49824 43.2244 6.06377 42.3525 5.93897ZM40.3638 1.48422C40.8503 1.48422 41.3172 1.67752 41.6612 2.02153C42.0053 2.36553 42.1985 2.83241 42.1985 3.31896C42.1985 3.80551 42.0052 4.27235 41.6612 4.61639C41.3172 4.96044 40.8503 5.1537 40.3638 5.1537C39.8772 5.1537 39.4104 4.9604 39.0664 4.61639C38.7223 4.27239 38.529 3.80551 38.529 3.31896C38.529 2.83241 38.7224 2.36557 39.0664 2.02153C39.4104 1.67748 39.8772 1.48422 40.3638 1.48422ZM44.0332 13.9603H36.6943V9.55701C36.6943 8.97317 36.9263 8.41289 37.3391 8.00015C37.7519 7.58741 38.3122 7.35538 38.896 7.35538H41.8315C42.4154 7.35538 42.9756 7.58734 43.3884 8.00015C43.8011 8.41297 44.0332 8.97325 44.0332 9.55701L44.0332 13.9603Z" fill="black"/>
<path d="M41.0972 30.4734C41.0952 32.3219 40.36 34.094 39.0531 35.4013C37.7459 36.7082 35.9737 37.4434 34.1253 37.4454H13.209V38.9131H34.1253C37.1404 38.9131 39.9266 37.3045 41.4344 34.6933C42.9418 32.0821 42.9418 28.8648 41.4344 26.254C39.9266 23.6428 37.1405 22.0342 34.1253 22.0342H33.7583V23.502H34.1253C35.9737 23.5039 37.7459 24.2391 39.0531 25.546C40.3601 26.8533 41.0953 28.6254 41.0972 30.4739V30.4734Z" fill="black"/>
<path d="M11.3753 23.5005H11.7422V22.0327H11.3753C8.88431 22.0327 6.58266 20.7039 5.3374 18.5468C4.09205 16.3897 4.09205 13.732 5.3374 11.5748C6.58275 9.41772 8.88431 8.08891 11.3753 8.08891H29.231L27.4697 9.32176L28.3064 10.5255L31.9759 7.9569C32.1725 7.81962 32.2898 7.59487 32.2898 7.35504C32.2898 7.11521 32.1725 6.89046 31.9759 6.75318L28.3064 4.18457L27.4697 5.38832L29.231 6.62117H11.3753C8.3601 6.62117 5.57392 8.22985 4.06614 10.841C2.55868 13.4522 2.55868 16.6695 4.06614 19.2803C5.57392 21.8915 8.36002 23.5001 11.3753 23.5001V23.5005Z" fill="black"/>
</svg>
