<svg width="58" height="53" viewBox="0 0 58 53" fill="none" xmlns="http://www.w3.org/2000/svg">
<path d="M38.584 30.2231C37.696 30.2231 36.7679 30.5957 36.034 31.4425L32.3786 36.1489C31.9562 35.4514 28.7681 29.6315 26.8043 28.0783C25.9328 27.3893 24.8162 26.8378 23.6243 26.4167C23.1267 26.9463 22.5603 27.4079 21.9376 27.7903C23.3488 28.1742 24.7239 28.7439 25.68 29.4997C26.3399 30.022 32.1926 39.3427 32.1926 39.3427L33.8101 37.2604L37.4315 32.5988C37.8498 32.1331 38.2876 32.0352 38.5846 32.0352C38.9179 32.0352 39.2404 32.1582 39.4702 32.3734C39.918 32.793 40.1349 33.8999 39.3553 34.8053L39.3205 34.847L39.2873 34.8895L32.924 43.244C32.5696 43.6903 32.0974 43.9468 31.6273 43.9468C31.3364 43.9468 31.0613 43.8477 30.8209 43.66L25.5311 34.7073V48.701C25.5311 49.8302 24.6236 50.7498 23.5082 50.7498H11.762C11.2057 50.7498 10.6923 50.5402 10.3165 50.1587C9.9677 49.8063 9.77917 49.3427 9.78524 48.8365L9.82853 34.1924L4.80567 46.1851C4.3841 47.1099 3.60246 47.5311 3.05135 47.5311C2.90126 47.5311 2.75884 47.5012 2.62735 47.4433C1.8805 47.1124 1.58996 45.9043 2.00591 44.858L3.38229 41.3948C4.7829 37.8697 6.36042 33.9003 6.5773 33.3562C8.04876 30.406 10.265 28.538 13.2889 27.7013C12.6909 27.317 12.1496 26.8557 11.6722 26.333C8.97169 27.3493 6.56642 29.2776 4.92138 32.6161C4.91491 32.6303 2.10182 39.7105 0.322545 44.1883C-0.464773 46.1679 0.238797 48.3673 1.89395 49.1004C2.26617 49.265 2.6582 49.3439 3.05189 49.3439C4.41046 49.3439 5.79336 48.4154 6.46855 46.9083L7.98941 43.276L7.97323 48.8313C7.94774 50.8919 9.64416 52.5628 11.7625 52.5628L23.5087 52.5623C25.6271 52.5623 27.3441 50.8339 27.3441 48.701V41.3377L29.4002 44.8195C30.0342 45.4506 30.8267 45.7593 31.6271 45.7593C32.6215 45.7593 33.6281 45.2815 34.3564 44.3546L40.7289 35.9875C42.1163 34.376 41.9002 32.1659 40.7091 31.05C40.1447 30.5228 39.3805 30.2226 38.5842 30.2226L38.584 30.2231Z" fill="black"/>
<path d="M54.3755 0H17.2188C15.2254 0 13.5938 1.63127 13.5938 3.62504V13.7998C14.1594 13.4701 14.7654 13.2051 15.4063 13.0182V3.62505C15.4063 2.62494 16.2195 1.81253 17.2188 1.81253H54.3755C55.3752 1.81253 56.188 2.62494 56.188 3.62505V30.8129C56.188 31.8122 55.3752 32.6254 54.3755 32.6254H43.432C43.5206 33.2197 43.5109 33.8327 43.4017 34.4379H54.3752C56.369 34.4379 58.0002 32.8067 58.0002 30.8129V3.62505C58.0002 1.63128 56.369 1.04701e-05 54.3752 1.04701e-05L54.3755 0Z" fill="black"/>
<path d="M17.6837 27.1877C21.1877 27.1877 24.0275 24.3475 24.0275 20.843C24.0275 17.3393 21.1877 14.5 17.6837 14.5C14.1813 14.5 11.3398 17.3389 11.3398 20.843C11.3398 24.3475 14.1813 27.1877 17.6837 27.1877ZM17.6837 16.3125C20.1819 16.3125 22.215 18.3447 22.215 20.843C22.215 23.3413 20.1819 25.3751 17.6837 25.3751C15.1854 25.3751 13.1524 23.3413 13.1524 20.843C13.1524 18.3447 15.1854 16.3125 17.6837 16.3125Z" fill="black"/>
</svg>
