<svg width="55" height="52" viewBox="0 0 55 52" fill="none" xmlns="http://www.w3.org/2000/svg">
<path d="M37.394 50.5717V47.4713C37.3984 46.0047 36.9963 44.5661 36.2332 43.319C35.47 42.0715 34.3763 41.0654 33.0763 40.4142L25.6348 36.6553C25.1969 36.4366 24.9214 35.9838 24.9255 35.4899V33.1005C25.0638 32.9257 25.2021 32.7334 25.3465 32.5176V32.518C26.3099 31.1415 27.0856 29.64 27.652 28.0539C28.2463 27.7112 28.7405 27.2161 29.0843 26.6185C29.4285 26.021 29.6106 25.3421 29.6118 24.6507V21.5154C29.6078 20.6739 29.3348 19.8565 28.8338 19.1846V17.1797C28.9898 15.1086 28.336 13.0579 27.0123 11.4688C25.2829 9.44644 22.4642 8.4209 18.7059 8.4209C14.9475 8.4209 12.1574 9.44649 10.3994 11.4688C9.07134 13.0464 8.41625 15.0915 8.57755 17.1565V19.1727C8.07654 19.8446 7.80352 20.6625 7.7995 21.5039V24.6567C7.78904 25.7632 8.24381 26.8222 9.05038 27.5705C9.5932 29.5494 10.4814 31.4144 11.6732 33.0773V35.4081C11.6836 35.8927 11.4255 36.3427 11.0045 36.574L4.07 40.391C2.83796 41.069 1.80942 42.0707 1.09329 43.2901C0.377159 44.5095 -0.000411409 45.9015 3.36399e-07 47.3197V50.5717C3.36399e-07 51.0542 0.387216 51.4457 0.864903 51.4457H36.5293C37.0065 51.4457 37.3938 51.0542 37.3938 50.5717L37.394 50.5717ZM35.6646 49.6977L1.72955 49.6973V47.3197C1.72914 46.2168 2.02268 45.1339 2.57958 44.1852C3.13648 43.2364 3.93628 42.4572 4.89441 41.9291L11.8462 38.0946C12.3191 37.8312 12.7131 37.4438 12.987 36.9731C13.2612 36.5024 13.4043 35.9658 13.4027 35.4198V32.7858C13.4035 32.5919 13.3404 32.4037 13.2238 32.2496C12.0248 30.6354 11.1474 28.8004 10.6415 26.8477C10.5941 26.6603 10.4863 26.4945 10.3359 26.3758C9.812 25.9648 9.5056 25.3323 9.5056 24.6624V21.5153C9.51284 20.9763 9.71831 20.4588 10.0822 20.0645C10.2237 19.904 10.3018 19.6966 10.3014 19.4816V17.1097C10.3034 17.0768 10.3034 17.0438 10.3014 17.0109C10.1727 15.4227 10.6653 13.8472 11.6733 12.6228C13.0855 10.9968 15.4433 10.1696 18.677 10.1696C21.9106 10.1696 24.2685 10.9972 25.6807 12.6228C26.7068 13.85 27.2106 15.4382 27.0815 17.0397C27.0795 17.0731 27.0795 17.106 27.0815 17.1389V19.4697C27.0811 19.6848 27.1591 19.8921 27.3007 20.0527C27.6646 20.447 27.87 20.9644 27.8769 21.5038V24.6566C27.8761 25.0773 27.755 25.4887 27.5279 25.8412C27.3007 26.194 26.9774 26.4725 26.5974 26.6436C26.3771 26.7432 26.2078 26.931 26.1302 27.1623C25.6119 28.7245 24.872 30.2025 23.9339 31.5504C23.7493 31.8126 23.5648 32.0573 23.3979 32.2671C23.2648 32.4309 23.1953 32.6382 23.2021 32.85V35.5422C23.2009 36.1081 23.3561 36.6626 23.6504 37.1434C23.9452 37.6243 24.3666 38.0125 24.868 38.2638L32.3039 41.9816C33.316 42.489 34.1672 43.2727 34.7611 44.2442C35.355 45.2153 35.6682 46.3352 35.6646 47.477L35.6646 49.6977Z" fill="black"/>
<path d="M49.5745 17.5644C50.8737 17.5628 52.119 17.0404 53.0374 16.1116C53.9562 15.1832 54.4728 13.9242 54.4745 12.6108V4.9532C54.4729 3.64024 53.9562 2.38128 53.0374 1.45241C52.119 0.523969 50.8737 0.00166501 49.5745 0H36.691C35.3918 0.00162599 34.1465 0.523979 33.2281 1.45241C32.3093 2.38126 31.7927 3.64013 31.791 4.9532V21.2703C31.7914 21.6195 31.9969 21.9349 32.3137 22.0731C32.6306 22.2109 32.9985 22.1451 33.2494 21.9057L37.8208 17.5643L49.5745 17.5644ZM36.8927 16.0551L33.5203 19.2486V4.95341C33.522 4.10383 33.8565 3.28965 34.4508 2.68879C35.0451 2.08799 35.8505 1.74978 36.6909 1.74855H49.5744C50.4148 1.74977 51.2202 2.08798 51.8145 2.68879C52.4088 3.28958 52.7433 4.10384 52.745 4.95341V12.611C52.7433 13.4606 52.4088 14.2748 51.8145 14.8756C51.2202 15.4764 50.4148 15.8146 49.5744 15.8163H37.4691C37.2524 15.8191 37.0445 15.9045 36.8869 16.0553L36.8927 16.0551Z" fill="black"/>
<path d="M37.6129 7.1624H41.4578C41.9355 7.1624 42.3223 6.77094 42.3223 6.28803C42.3223 5.80552 41.9355 5.41406 41.4578 5.41406H37.6129C37.1353 5.41406 36.748 5.80552 36.748 6.28803C36.748 6.77094 37.1353 7.1624 37.6129 7.1624Z" fill="black"/>
<path d="M47.2105 10.0752H37.613C37.1353 10.0752 36.748 10.4667 36.748 10.9492C36.748 11.4321 37.1353 11.8235 37.613 11.8235H47.2105C47.6882 11.8235 48.0754 11.4321 48.0754 10.9492C48.0754 10.4667 47.6882 10.0752 47.2105 10.0752Z" fill="black"/>
</svg>
