<svg width="64" height="49" viewBox="0 0 64 49" fill="none" xmlns="http://www.w3.org/2000/svg">
<path d="M29.2845 35.47C29.3586 37.1734 29.0503 38.872 28.3815 40.4449C27.7127 42.0177 26.6999 43.4262 25.4151 44.57L25.4049 44.578C22.7448 46.8992 19.2804 48.1263 15.7273 48.006H15.7497C13.602 48.1203 11.4551 47.7677 9.46153 46.9734C7.46793 46.1791 5.67652 44.9625 4.21457 43.41L4.20644 43.402C1.2755 39.9792 -0.219442 35.5856 0.0260851 31.116L0.0240529 31.158C-0.112154 26.5164 0.764483 21.8999 2.59486 17.62L2.51357 17.834C3.97499 14.4783 6.00266 11.3901 8.51076 8.7L8.48841 8.724C10.5605 6.51181 12.9614 4.62165 15.6094 3.118L15.7558 3.042C17.7585 1.90497 19.8486 0.92397 22.007 0.108L22.324 0.002L28.6931 10.582C26.0465 11.6329 23.7233 13.3436 21.9521 15.546L21.9257 15.58C20.1621 17.6474 19.056 20.18 18.7452 22.862L18.7391 22.926C20.125 22.9602 21.488 23.2821 22.7386 23.8708C23.9893 24.4595 25.0994 25.3016 25.9963 26.342L26.0085 26.356C28.2889 28.8548 29.4686 32.142 29.2886 35.496L29.2906 35.466L29.2845 35.47ZM63.7272 35.47C63.8005 37.1738 63.4916 38.8726 62.8225 40.4457C62.1534 42.0188 61.1405 43.4276 59.8558 44.572L59.8456 44.58C57.186 46.9021 53.7213 48.1294 50.168 48.008H50.1904C48.0426 48.1228 45.8956 47.7706 43.9019 46.9762C41.9082 46.1818 40.1169 44.9649 38.6553 43.412L38.6471 43.402C35.715 39.9791 34.2199 35.5844 34.4668 31.114L34.4647 31.156C34.3285 26.5144 35.2052 21.8979 37.0355 17.618L36.9543 17.832C38.415 14.4769 40.4412 11.3888 42.9474 8.698L42.925 8.722C44.9978 6.50976 47.3995 4.61961 50.0481 3.116L50.1944 3.04C52.1967 1.90216 54.2869 0.921138 56.4456 0.106L56.7627 0L63.1297 10.58C60.4827 11.6322 58.1595 13.3443 56.3887 15.548L56.3623 15.582C54.5987 17.6494 53.4926 20.182 53.1818 22.864L53.1757 22.928C54.5611 22.962 55.9235 23.2839 57.1735 23.8726C58.4236 24.4613 59.5329 25.3035 60.4289 26.344L60.4411 26.358C62.7239 28.8549 63.9059 32.1417 63.7272 35.496L63.7293 35.466L63.7272 35.47Z" fill="#EEEEEE"/>
</svg>
