<svg width="53" height="53" viewBox="0 0 53 53" fill="none" xmlns="http://www.w3.org/2000/svg">
<path d="M20.791 15.7069C20.4586 16.337 20.1867 16.9987 19.98 17.6811L17.1207 18.1009C16.9066 18.1323 16.748 18.316 16.748 18.5323V19.7737C16.748 20.0146 16.9433 20.2097 17.1841 20.2097C17.4248 20.2097 17.6201 20.0146 17.6201 19.7737V18.9089L20.3843 18.503C20.5554 18.4779 20.6955 18.354 20.7413 18.1873C20.9622 17.3846 21.2804 16.6097 21.687 15.8842C21.7709 15.7347 21.7593 15.5498 21.6574 15.4119L19.9836 13.1473L22.8432 10.2609L25.0805 11.9455C25.2195 12.0503 25.4077 12.0621 25.559 11.9759C26.277 11.5658 27.0441 11.2448 27.8388 11.0221C28.005 10.9755 28.1281 10.8352 28.1527 10.6644L28.555 7.87201H32.5946L32.9969 10.6644C33.0215 10.8352 33.1446 10.9754 33.3109 11.0221C34.1055 11.2449 34.8726 11.5658 35.5907 11.9759C35.742 12.0622 35.9302 12.0503 36.0692 11.9455L38.3064 10.2609L41.1659 13.1473L39.4923 15.4119C39.3903 15.5498 39.3787 15.7347 39.4625 15.8842C39.8693 16.6099 40.1874 17.3848 40.4082 18.1873C40.4541 18.354 40.5942 18.4779 40.7653 18.503L43.5296 18.9089V22.9954L40.7653 23.4012C40.5942 23.4263 40.4542 23.5502 40.4083 23.717C40.1874 24.5198 39.8692 25.2947 39.4626 26.02C39.3787 26.1695 39.3904 26.3544 39.4923 26.4922L41.1659 28.7569L38.3064 31.6434L36.0692 29.9587C35.9301 29.854 35.742 29.842 35.5907 29.9284C34.8726 30.3385 34.1055 30.6594 33.3109 30.8822C33.1446 30.9288 33.0216 31.0691 32.9969 31.2399L32.5946 34.0323H28.555L28.1537 31.2472C28.1306 31.0761 28.0045 30.9303 27.8387 30.8822C27.41 30.762 26.9852 30.6118 26.576 30.4358C26.3549 30.3406 26.0984 30.4428 26.0032 30.664C25.9081 30.8852 26.0102 31.1417 26.2314 31.2368C26.5885 31.3904 26.9569 31.525 27.3293 31.64L27.7459 34.5304C27.7767 34.745 27.9606 34.9043 28.1774 34.9043H32.9723C33.1891 34.9043 33.373 34.745 33.4039 34.5304L33.8202 31.641C34.4942 31.4329 35.1481 31.1595 35.7706 30.8254L38.086 32.5689C38.2603 32.7 38.5045 32.6823 38.658 32.5273L42.0485 29.105C42.1998 28.9523 42.2172 28.712 42.0895 28.5391L40.3587 26.1973C40.691 25.5674 40.9629 24.9056 41.1696 24.2232L44.029 23.8034C44.243 23.772 44.4016 23.5883 44.4016 23.372V18.5322C44.4016 18.3159 44.243 18.1322 44.029 18.1008L41.1696 17.681C40.9629 16.9988 40.6911 16.337 40.3586 15.7068L42.0894 13.3651C42.2172 13.1922 42.2 12.9519 42.0485 12.7991L38.658 9.37684C38.5046 9.22188 38.2601 9.2041 38.086 9.33533L35.7706 11.0788C35.1481 10.7447 34.4943 10.4712 33.8202 10.2632L33.4039 7.37383C33.3729 7.15923 33.1891 7 32.9723 7H28.1773C27.9605 7 27.7766 7.15923 27.7458 7.37383L27.3295 10.2632C26.6554 10.4713 26.0015 10.7447 25.379 11.0788L23.0637 9.33533C22.8895 9.20418 22.6452 9.2218 22.4916 9.37684L19.1011 12.7991C18.9497 12.9519 18.9323 13.1922 19.0602 13.3651L20.791 15.7069Z" fill="black"/>
<path d="M30.5758 29.4857C35.0812 29.4857 38.7466 25.8186 38.7466 21.3112C38.7466 16.8039 35.0812 13.1368 30.5758 13.1368C26.0702 13.1368 22.4047 16.8039 22.4047 21.3112C22.3573 25.6942 26.0464 29.5143 30.5758 29.4857ZM30.5758 14.0089C34.6003 14.0089 37.8746 17.2846 37.8746 21.3112C37.8746 23.2864 37.0855 25.0796 35.8078 26.3954V24.2989C35.8078 24.0581 35.6127 23.8629 35.3718 23.8629C35.131 23.8629 34.9358 24.0581 34.9358 24.2989V27.164C34.2448 27.6806 33.4589 28.0759 32.6104 28.3228V23.9273C32.6104 23.6864 32.4153 23.4913 32.1744 23.4913C31.9336 23.4913 31.7384 23.6864 31.7384 23.9273V28.5199C31.3596 28.5809 30.9715 28.6136 30.5758 28.6136C30.18 28.6136 29.7918 28.5809 29.413 28.5199V25.6713C29.413 25.4305 29.2179 25.2353 28.977 25.2353C28.7362 25.2353 28.541 25.4305 28.541 25.6713V28.3227C27.6925 28.0759 26.9067 27.6806 26.2156 27.164V23.0553C26.2156 22.8144 26.0204 22.6193 25.7796 22.6193C25.5388 22.6193 25.3436 22.8144 25.3436 23.0553V26.3954C24.414 25.4381 23.7442 24.228 23.4479 22.8788L26.7022 20.4631L28.9762 22.5075C29.1231 22.6394 29.3405 22.6563 29.5058 22.5485L33.5777 19.8936L33.252 20.7073C33.1625 20.9308 33.2711 21.1846 33.4946 21.2741C33.7126 21.363 33.9721 21.2572 34.0614 21.0314L34.8893 18.9641C35.0339 18.6927 34.8272 18.331 34.5164 18.3284L32.2502 18.2423C32.2445 18.242 32.2389 18.2419 32.2334 18.2419C32.0002 18.2419 31.8069 18.4264 31.798 18.6614C31.7888 18.9021 31.9765 19.1045 32.2171 19.1137L33.1247 19.1482L29.3102 21.6351L27.0201 19.5764C26.8659 19.4377 26.6354 19.4269 26.4688 19.5506L23.3027 21.9007C23.2871 21.7061 23.2768 21.5099 23.2768 21.3112C23.2768 17.2846 26.5512 14.0089 30.5758 14.0089Z" fill="black"/>
<path d="M35.3715 22.7501C35.6845 22.7501 35.9383 22.4963 35.9383 22.1833C35.9383 21.8702 35.6845 21.6165 35.3715 21.6165C35.0585 21.6165 34.8047 21.8702 34.8047 22.1833C34.8047 22.4963 35.0585 22.7501 35.3715 22.7501Z" fill="black"/>
<path d="M23.6664 45.274C23.9072 45.274 24.1025 45.0788 24.1025 44.838V41.802C24.1025 39.9485 23.269 38.2899 21.9498 37.1857C22.7512 36.6384 23.2495 35.7211 23.2495 34.7341C23.2495 34.1016 23.0541 33.5023 22.6914 33.0015C23.397 32.4443 23.8186 31.5922 23.8186 30.6734C23.8186 29.8069 23.4522 29.0053 22.8057 28.4413V27.7379C22.8812 24.251 19.6706 21.1347 16.1978 21.2116C12.7283 21.1354 9.52085 24.2434 9.59009 27.7279L9.59105 28.4416C8.9448 29.0056 8.57847 29.8072 8.57847 30.6735C8.57847 31.5923 9.00009 32.4445 9.70572 33.0015C9.34296 33.5024 9.14763 34.1017 9.14763 34.7342C9.14763 35.7644 9.67293 36.6917 10.5081 37.2277C9.21818 38.3319 8.40625 39.9722 8.40625 41.8021V44.838C8.40625 45.0789 8.60149 45.274 8.84226 45.274C9.08302 45.274 9.27826 45.0789 9.27826 44.838V41.802C9.27608 39.1861 11.2265 37.0259 13.7469 36.7029C13.8609 37.9864 14.9417 38.9963 16.2544 38.9963C17.567 38.9963 18.6478 37.9864 18.7618 36.7029C21.3008 37.0338 23.2304 39.1927 23.2304 41.802V44.838C23.2304 45.0788 23.4257 45.274 23.6664 45.274ZM10.0196 34.7341C10.0196 34.1579 10.2495 33.6205 10.6669 33.221C10.895 33.0137 10.8135 32.6142 10.5286 32.5053C9.86242 32.1345 9.45048 31.4364 9.45048 30.6734C9.45048 30.0087 9.75621 29.3979 10.2893 28.9974C10.3991 28.9149 10.4636 28.7855 10.4634 28.6482L10.4622 27.7282C10.47 24.6684 13.0966 22.0835 16.1979 22.0835C19.3046 22.0835 21.9314 24.6731 21.9338 27.7382V28.6488C21.9338 28.7859 21.9983 28.9151 22.1079 28.9974C22.641 29.3979 22.9467 30.0087 22.9467 30.6734C22.9467 31.4289 22.5428 32.1207 21.8882 32.4942C21.5877 32.5906 21.4941 33.007 21.7301 33.221C22.1476 33.6205 22.3774 34.1578 22.3774 34.7341C22.3774 35.5434 21.9035 36.2874 21.1697 36.6316C20.4553 36.206 19.6435 35.9247 18.7724 35.8262V34.7059C19.9159 33.9185 20.6673 32.6022 20.6673 31.1136V28.5499C20.6673 28.3112 20.4752 28.1168 20.2365 28.1139C18.3489 28.1588 16.5324 27.3593 15.3263 25.9015C15.1446 25.6708 14.7553 25.7035 14.6145 25.9609C14.1019 26.9854 13.3191 27.9243 12.1608 28.2068C11.9719 28.2591 11.8411 28.431 11.8411 28.6269V31.1137C11.8411 32.6024 12.5925 33.9186 13.7362 34.706V35.8263C12.846 35.9269 12.0179 36.2189 11.2923 36.6603C10.5238 36.333 10.0196 35.5827 10.0196 34.7341ZM12.7132 31.1135V28.9453C13.7226 28.5849 14.5531 27.8594 15.0687 26.9132C16.3205 28.1753 18.006 28.9162 19.7954 28.9788V31.1135C19.7983 33.0699 18.1682 34.6516 16.2101 34.6031C14.2819 34.6031 12.7132 33.0377 12.7132 31.1135ZM16.2544 38.1243C15.3467 38.1243 14.6083 37.3858 14.6083 36.4782V35.1701C15.6166 35.5787 16.8921 35.5787 17.9004 35.1701V36.4782C17.9004 37.3858 17.162 38.1243 16.2544 38.1243Z" fill="black"/>
<path d="M11.459 43.0766V44.8379C11.459 45.0788 11.6542 45.2739 11.895 45.2739C12.1358 45.2739 12.331 45.0788 12.331 44.8379V43.0766C12.331 42.8358 12.1358 42.6406 11.895 42.6406C11.6542 42.6406 11.459 42.8358 11.459 43.0766Z" fill="black"/>
<path d="M20.1797 43.0767V44.838C20.1797 45.0788 20.3749 45.274 20.6157 45.274C20.8565 45.274 21.0517 45.0788 21.0517 44.838V43.0767C21.0517 42.8358 20.8565 42.6407 20.6157 42.6407C20.3749 42.6407 20.1797 42.8358 20.1797 43.0767Z" fill="black"/>
<path d="M31.8383 43.5771H39.6352C39.876 43.5771 40.0712 43.3819 40.0712 43.1411C40.0712 42.9002 39.876 42.7051 39.6352 42.7051H31.8383C31.5975 42.7051 31.4023 42.9002 31.4023 43.1411C31.4023 43.3819 31.5975 43.5771 31.8383 43.5771Z" fill="black"/>
<path d="M43.6454 42.7051H42.2231C41.9823 42.7051 41.7871 42.9002 41.7871 43.1411C41.7871 43.3819 41.9823 43.5771 42.2231 43.5771H43.6454C43.8862 43.5771 44.0814 43.3819 44.0814 43.1411C44.0814 42.9002 43.8862 42.7051 43.6454 42.7051Z" fill="black"/>
<path d="M36.5829 38.7812C36.5829 38.5403 36.3877 38.3452 36.1469 38.3452H28.3501C28.1092 38.3452 27.9141 38.5403 27.9141 38.7812C27.9141 39.022 28.1092 39.2172 28.3501 39.2172H36.1469C36.3877 39.2172 36.5829 39.022 36.5829 38.7812Z" fill="black"/>
<path d="M40.5931 38.7812C40.5931 38.5404 40.3979 38.3452 40.1571 38.3452H38.7348C38.494 38.3452 38.2988 38.5404 38.2988 38.7812C38.2988 39.0221 38.494 39.2172 38.7348 39.2172H40.1571C40.3979 39.2172 40.5931 39.0221 40.5931 38.7812Z" fill="black"/>
<path d="M11.8426 18.2008C14.9307 18.2008 17.4431 15.6885 17.4431 12.6004C17.4431 9.51235 14.9307 7 11.8426 7C8.75454 7 6.24219 9.51244 6.24219 12.6005C6.24219 15.6885 8.75454 18.2008 11.8426 18.2008ZM11.8426 7.87201C14.4498 7.87201 16.5711 9.99318 16.5711 12.6005C16.5711 15.2078 14.4499 17.3289 11.8426 17.3289C9.23528 17.3289 7.1142 15.2077 7.1142 12.6005C7.1142 9.99327 9.23537 7.87201 11.8426 7.87201Z" fill="black"/>
<path d="M11.5867 12.9612L12.9584 14.3292C13.129 14.4993 13.405 14.4989 13.575 14.3283C13.7451 14.1579 13.7446 13.8818 13.5742 13.7118L12.2783 12.4194V10.2688C12.2783 10.0279 12.083 9.83276 11.8423 9.83276C11.6015 9.83276 11.4062 10.0279 11.4062 10.2688V12.6079C11.4062 12.7533 11.4773 12.882 11.5867 12.9612Z" fill="black"/>
<path d="M46.3741 47.018H6.43601C6.19524 47.018 6 47.2132 6 47.454C6 47.6949 6.19524 47.89 6.43601 47.89H46.3741C46.615 47.89 46.8101 47.6949 46.8101 47.454C46.8101 47.2132 46.615 47.018 46.3741 47.018Z" fill="black"/>
</svg>
