<svg width="53" height="53" viewBox="0 0 53 53" fill="none" xmlns="http://www.w3.org/2000/svg">
<path d="M47.5057 5.9678C47.5009 5.9567 47.5009 5.94332 47.4957 5.93249C47.4089 5.75204 47.2629 5.60609 47.0825 5.51929C47.0716 5.51406 47.0583 5.51411 47.0472 5.50931C46.9662 5.47443 46.8813 5.44613 46.7898 5.43675C46.7664 5.43437 46.721 5.42995 46.6623 5.42461C46.6528 5.42375 46.6441 5.4231 46.6336 5.42213C44.8662 5.264 29.7875 4.20178 21.0265 12.9632C19.9264 14.0633 18.9018 15.2081 17.9595 16.382C14.6587 14.6176 10.5132 15.1943 7.82132 17.8858C5.39086 20.3163 4.6408 23.9509 5.91016 27.1448C6.04387 27.4813 6.36908 27.7021 6.73096 27.7021C7.09283 27.7021 7.41804 27.4813 7.55175 27.1448C7.89421 26.2835 8.40532 25.5093 9.07041 24.8438C10.3318 23.5831 12.0311 22.8883 13.7851 22.8604C13.0635 24.3081 12.4638 25.759 12.0357 27.1897C11.9425 27.5007 12.0275 27.838 12.2574 28.0674L13.7273 29.5373C13.0119 29.8885 12.3495 30.3412 11.7847 30.9063C9.14546 33.5456 7.71824 43.3455 7.56383 44.4544C7.52587 44.7287 7.6186 45.0047 7.81442 45.2005C7.98134 45.3675 8.20649 45.4593 8.43896 45.4593C8.47951 45.4593 8.52005 45.4567 8.5606 45.4511C9.66951 45.2967 19.4694 43.8695 22.1091 41.2303C22.674 40.6656 23.1264 40.0033 23.4776 39.2876L24.9475 40.7576C25.1158 40.9258 25.3413 41.0164 25.5721 41.0164C25.6566 41.0164 25.742 41.0043 25.8253 40.9793C27.2558 40.5512 28.7066 39.9515 30.1542 39.23C30.126 40.9838 29.4326 42.6836 28.1716 43.9441C27.5057 44.6096 26.7315 45.1208 25.8701 45.4632C25.5337 45.5969 25.3129 45.9221 25.3129 46.284C25.3129 46.6459 25.5337 46.9711 25.8701 47.1048C26.9018 47.515 27.9793 47.7143 29.0476 47.7143C31.2866 47.7143 33.4837 46.8387 35.1292 45.1936C37.821 42.5018 38.3978 38.3559 36.6331 35.0555C37.807 34.1132 38.952 33.0886 40.0522 31.9885C49.1693 22.8714 47.6477 6.90063 47.5782 6.22519C47.5688 6.1337 47.5405 6.04878 47.5057 5.9678ZM20.86 39.9812C19.1955 41.6452 12.9005 42.9642 9.4931 43.5219C10.0504 40.1149 11.3685 33.8207 13.0338 32.1554C13.6048 31.5844 14.2984 31.1457 15.0605 30.871L22.144 37.9545C21.8693 38.7166 21.4306 39.4101 20.86 39.9812ZM45.8728 7.14217C45.9757 8.99159 46.0851 14.0654 44.7375 19.46L33.5554 8.27787C38.9507 6.93012 44.025 7.03957 45.8728 7.14217ZM7.82132 23.5947C7.55563 23.8604 7.30978 24.1399 7.08377 24.4323C6.95136 22.4957 7.64923 20.5565 9.07041 19.1349C11.1408 17.0645 14.2924 16.5724 16.8707 17.8148C16.0731 18.9063 15.3548 20.0164 14.7103 21.1355C12.1757 20.894 9.63678 21.7788 7.82132 23.5947ZM33.8801 43.9446C32.4585 45.3657 30.5197 46.0658 28.5827 45.9312C28.8755 45.7052 29.155 45.4593 29.4207 45.1936C31.2367 43.3776 32.1226 40.8413 31.8797 38.3045C32.9987 37.6601 34.1087 36.9419 35.2002 36.1443C36.4423 38.7224 35.9509 41.8738 33.8801 43.9446ZM38.8031 30.7394C34.8018 34.7399 30.2109 37.7039 25.8188 39.1306L23.7701 37.0819L15.9331 29.2449L13.8843 27.1962C15.3111 22.8036 18.2751 18.2132 22.2756 14.2123C24.9228 11.5653 28.2599 9.88754 31.607 8.82812L44.1873 21.4084C43.1279 24.7553 41.4501 28.0923 38.8031 30.7394Z" fill="#635D5D"/>
<path d="M18.3712 25.1897C18.0261 24.8446 17.4671 24.8446 17.1221 25.1897C16.777 25.5347 16.777 26.0937 17.1221 26.4388L17.8096 27.1263C17.9821 27.2988 18.2081 27.3851 18.4341 27.3851C18.6601 27.3851 18.8861 27.2988 19.0587 27.1263C19.4037 26.7813 19.4037 26.2223 19.0587 25.8772L18.3712 25.1897Z" fill="#635D5D"/>
<path d="M21.293 28.1119C20.948 27.7668 20.389 27.7668 20.0439 28.1119C19.6989 28.4569 19.6989 29.0159 20.0439 29.361L20.7315 30.0485C20.904 30.221 21.13 30.3073 21.356 30.3073C21.582 30.3073 21.808 30.221 21.9805 30.0485C22.3256 29.7034 22.3256 29.1444 21.9805 28.7994L21.293 28.1119Z" fill="#635D5D"/>
<path d="M24.2149 31.0342C23.8699 30.6891 23.3109 30.6891 22.9658 31.0342C22.6208 31.3792 22.6208 31.9382 22.9658 32.2833L23.6533 32.9708C23.8259 33.1433 24.0519 33.2296 24.2779 33.2296C24.5039 33.2296 24.7299 33.1433 24.9024 32.9708C25.2475 32.6257 25.2475 32.0667 24.9024 31.7217L24.2149 31.0342Z" fill="#635D5D"/>
<path d="M27.1368 33.9561C26.7917 33.611 26.2327 33.611 25.8877 33.9561C25.5426 34.3011 25.5426 34.8601 25.8877 35.2051L26.5752 35.8927C26.7477 36.0652 26.9737 36.1514 27.1998 36.1514C27.4258 36.1514 27.6518 36.0652 27.8243 35.8927C28.1693 35.5476 28.1693 34.9886 27.8243 34.6436L27.1368 33.9561Z" fill="#635D5D"/>
<path d="M30.3559 15.5693C28.4625 15.5693 26.682 16.3069 25.3428 17.6461C22.5785 20.41 22.5785 24.9077 25.3428 27.6725C26.7251 29.0544 28.5405 29.7458 30.3559 29.7458C32.1718 29.7458 33.9872 29.0544 35.3691 27.6725C36.7083 26.3332 37.4459 24.5528 37.4459 22.6593C37.4459 20.7654 36.7083 18.9849 35.3691 17.6461C34.0303 16.3069 32.2498 15.5693 30.3559 15.5693ZM34.12 26.4234C32.0445 28.498 28.6673 28.498 26.5918 26.4234C24.5168 24.3475 24.5168 20.9707 26.5918 18.8952C27.5972 17.8898 28.9343 17.336 30.3559 17.336C31.778 17.336 33.1146 17.8898 34.12 18.8952C35.1254 19.9006 35.6792 21.2372 35.6792 22.6593C35.6792 24.0809 35.1254 25.418 34.12 26.4234Z" fill="#635D5D"/>
</svg>
