<svg width="55" height="55" viewBox="0 0 55 55" fill="none" xmlns="http://www.w3.org/2000/svg">
<path d="M1.84675 53.5166H12.0078C12.2323 53.5166 12.4478 53.4274 12.6066 53.2686C12.7653 53.1099 12.8545 52.8944 12.8545 52.6699V46.7426C12.8508 45.7269 12.4814 44.7459 11.8146 43.9797C11.1478 43.2134 10.2278 42.7121 9.22183 42.5681C10.0777 41.9225 10.622 40.9464 10.7214 39.8789C10.8204 38.8118 10.4655 37.7519 9.74353 36.9595C9.02152 36.1672 7.99941 35.7158 6.92727 35.7158C5.85514 35.7158 4.83304 36.1672 4.11102 36.9595C3.38902 37.7519 3.03405 38.8118 3.13314 39.8789C3.23256 40.9464 3.7769 41.9225 4.63272 42.5681C3.62677 42.7122 2.70677 43.2134 2.03991 43.9797C1.37306 44.7459 1.00377 45.7269 1 46.7426V52.6699C1 52.8944 1.08921 53.1099 1.24798 53.2686C1.40674 53.4274 1.62221 53.5166 1.84675 53.5166V53.5166ZM6.92727 37.4283C7.48863 37.4283 8.02728 37.6513 8.42424 38.0482C8.8212 38.4451 9.04418 38.9838 9.04418 39.5452C9.04418 40.1066 8.82115 40.6452 8.42424 41.0422C8.02733 41.4391 7.48865 41.6621 6.92727 41.6621C6.3659 41.6621 5.82727 41.4391 5.43031 41.0422C5.03335 40.6453 4.81037 40.1066 4.81037 39.5452C4.81037 38.9838 5.0334 38.4452 5.43031 38.0482C5.82722 37.6513 6.3659 37.4283 6.92727 37.4283ZM2.69351 46.7426C2.69351 46.069 2.96114 45.4225 3.43744 44.9463C3.91374 44.4701 4.56019 44.2024 5.23372 44.2024H8.62073C9.29435 44.2024 9.9408 44.47 10.417 44.9463C10.8932 45.4226 11.1609 46.0691 11.1609 46.7426V51.8231H2.69341L2.69351 46.7426Z" fill="black"/>
<path d="M17.9355 26.4219H19.6291V28.1154H17.9355V26.4219Z" fill="black"/>
<path d="M34.8691 26.4219H36.5626V28.1154H34.8691V26.4219Z" fill="black"/>
<path d="M26.4043 17.9541H28.0978V19.6476H26.4043V17.9541Z" fill="black"/>
<path d="M20.0625 21.2825L21.2601 20.085L22.4576 21.2825L21.2601 22.4801L20.0625 21.2825Z" fill="black"/>
<path d="M32.041 33.2552L33.2386 32.0576L34.4361 33.2552L33.2386 34.4527L32.041 33.2552Z" fill="black"/>
<path d="M20.0605 33.2532L21.2581 32.0557L22.4556 33.2532L21.2581 34.4508L20.0605 33.2532Z" fill="black"/>
<path d="M32.041 21.2825L33.2386 20.085L34.4361 21.2825L33.2386 22.4801L32.041 21.2825Z" fill="black"/>
<path d="M21.464 25.9304C21.1786 27.1684 21.2985 28.4654 21.8061 29.6304C22.3138 30.795 23.1825 31.7658 24.2837 32.3993V34.4656C24.2837 35.5244 24.8484 36.5027 25.7655 37.0323C26.6825 37.5615 27.812 37.5615 28.7291 37.0323C29.6462 36.5027 30.2109 35.5244 30.2109 34.4656V32.3993C31.9377 31.3979 33.0444 29.5949 33.1556 27.6016C33.2664 25.6086 32.3667 23.6936 30.7621 22.5067C29.157 21.3197 27.0625 21.02 25.1894 21.7099C23.316 22.3997 21.9158 23.9859 21.464 25.9304L21.464 25.9304ZM28.5174 34.4656C28.5174 35.1672 27.9489 35.7357 27.2473 35.7357C26.5457 35.7357 25.9772 35.1672 25.9772 34.4656V34.0422H28.5174V34.4656ZM27.2473 23.0349C28.5436 23.036 29.7675 23.631 30.5693 24.6494C31.3714 25.6678 31.6625 26.9973 31.3597 28.2576C31.0573 29.5178 30.1939 30.5699 29.0172 31.1131C28.717 31.2519 28.525 31.5528 28.5257 31.8835V32.3492H25.9855V31.8835C25.9866 31.5528 25.7946 31.2519 25.4944 31.1131C24.4156 30.6157 23.5949 29.6877 23.2336 28.5558C22.8722 27.4241 23.003 26.1925 23.5938 25.162C24.185 24.1312 25.1818 23.3963 26.3413 23.1366C26.6388 23.0705 26.9427 23.0364 27.2474 23.0349L27.2473 23.0349Z" fill="black"/>
<path d="M49.8664 7.85232C50.7222 7.20666 51.2666 6.23061 51.3659 5.16312C51.465 4.09602 51.11 3.03608 50.3881 2.24371C49.6661 1.45139 48.6439 1 47.5718 1C46.4997 1 45.4776 1.45135 44.7556 2.24371C44.0335 3.03603 43.6786 4.09602 43.7777 5.16312C43.8771 6.23061 44.4214 7.20666 45.2773 7.85232C44.2713 7.99634 43.3513 8.49759 42.6844 9.26383C42.0176 10.0301 41.6483 11.011 41.6445 12.0268V17.954C41.6445 18.1786 41.7337 18.3941 41.8925 18.5528C42.0513 18.7116 42.2667 18.8008 42.4913 18.8008H52.6523C52.8769 18.8008 53.0923 18.7116 53.2511 18.5528C53.4099 18.394 53.4991 18.1786 53.4991 17.954V12.0268C53.4953 11.011 53.126 10.0301 52.4592 9.26383C51.7924 8.49759 50.8723 7.99631 49.8664 7.85232ZM47.5718 2.71247C48.1332 2.71247 48.6718 2.9355 49.0688 3.33241C49.4657 3.72932 49.6887 4.268 49.6887 4.82938C49.6887 5.39075 49.4657 5.92938 49.0688 6.32634C48.6719 6.7233 48.1332 6.94628 47.5718 6.94628C47.0104 6.94628 46.4718 6.72325 46.0748 6.32634C45.6779 5.92943 45.4549 5.39075 45.4549 4.82938C45.4549 4.268 45.6779 3.72937 46.0748 3.33241C46.4718 2.93546 47.0104 2.71247 47.5718 2.71247ZM51.8056 17.1073H43.338V12.0268C43.338 11.3531 43.6057 10.7067 44.082 10.2305C44.5583 9.75427 45.2047 9.48655 45.8782 9.48655H49.2653C49.9389 9.48655 50.5853 9.75418 51.0615 10.2305C51.5378 10.7068 51.8055 11.3532 51.8055 12.0268L51.8056 17.1073Z" fill="black"/>
<path d="M48.4174 36.1599C48.4151 38.2927 47.5668 40.3374 46.0589 41.8457C44.5506 43.3536 42.5059 44.2019 40.3732 44.2041H16.2402V45.8976H40.3732C43.852 45.8976 47.0667 44.0415 48.8064 41.0288C50.5457 38.016 50.5457 34.304 48.8064 31.2916C47.0667 28.2788 43.8521 26.4229 40.3732 26.4229H39.9498V28.1164H40.3732C42.5059 28.1186 44.5506 28.9669 46.0589 30.4748C47.5668 31.9831 48.4151 34.0278 48.4174 36.1605V36.1599Z" fill="black"/>
<path d="M14.1244 28.1146H14.5477V26.4211H14.1244C11.2503 26.4211 8.59472 24.8879 7.15795 22.3991C5.72108 19.9102 5.72108 16.8438 7.15795 14.3549C8.59482 11.8661 11.2503 10.3329 14.1244 10.3329H34.7261L32.6939 11.7554L33.6594 13.1442L37.8931 10.1806C38.1199 10.0222 38.2553 9.76289 38.2553 9.48618C38.2553 9.20947 38.1199 8.95015 37.8931 8.79176L33.6594 5.82812L32.6939 7.21699L34.7261 8.63944H14.1244C10.6455 8.63944 7.43085 10.4955 5.69118 13.5082C3.9519 16.521 3.9519 20.2331 5.69118 23.2454C7.43085 26.2582 10.6454 28.1142 14.1244 28.1142V28.1146Z" fill="black"/>
</svg>
